<?xml version="1.0" encoding="utf-8"?>
<!-- Generator: Adobe Illustrator 21.0.0, SVG Export Plug-In . SVG Version: 6.00 Build 0)  -->
<svg version="1.1" id="Слой_1" xmlns="http://www.w3.org/2000/svg" xmlns:xlink="http://www.w3.org/1999/xlink" x="0px" y="0px"
	 viewBox="0 0 297.6 96.4" style="enable-background:new 0 0 297.6 96.4;" xml:space="preserve">
<style type="text/css">
	.st0{fill:#fff;}
</style>
<g>
	<path class="st0" d="M142.5,52.3h-6.3c-0.4,0-0.7,0.3-0.7,0.7v0.9h0.4v0.6l0.4,0.4v-0.3h0.6l-0.6,0.4h0.4v0.7l-0.5-0.6l-0.7,0.7
		v-0.1h0.8v0.7l-0.8-0.6v3.9c0,0.4,0.3,0.7,0.7,0.7h6.3c0.5,0,0.8-0.1,1-0.4c0.2-0.3,0.2-0.7,0.2-1.1v-5.1c0-0.5-0.1-0.9-0.2-1.2
		C143.4,52.4,143.1,52.3,142.5,52.3 M136.6,58.8l-0.5-0.5l0.1-0.1l0.5,0.5L136.6,58.8z"/>
	<path class="st0" d="M145.4,70.1l-0.6-0.6l0.1-0.1l0.5,0.5L145.4,70.1z M144.7,75.8l-0.5-0.5l0.1-0.1l0.5,0.5L144.7,75.8z
		 M142.9,73.1h1.3l-0.7,0.6L142.9,73.1z M144.3,73.2l0.5,0.5l-0.5,0.5V73.2z M140.2,74.6l-0.5-0.5h1L140.2,74.6z M139.9,71.7
		l0.5,0.5l-0.5,0.5V71.7z M135.5,70.6l0.3-0.3l0.3,0.3H135.5z M133.7,72.2l-0.5-0.5l0.1-0.1l0.5,0.5L133.7,72.2z M133.9,40l0.1,0.1
		l-0.5,0.5l-0.1-0.1L133.9,40z M133.4,38.8h0.6l-0.6,0.6V38.8z M135,38.1l0.4,0.4h-0.8L135,38.1z M135.4,40.3l-0.5-0.5l0.5-0.5
		l0.5,0.5L135.4,40.3z M131.7,60.9l-0.5-0.5l0.5-0.5l0.5,0.5L131.7,60.9z M130.4,39.4v-0.6h0.6L130.4,39.4z M130.7,42.4l-0.5-0.5
		l0.1-0.1l0.5,0.5L130.7,42.4z M129.8,61.2l-0.5-0.5l0.1-0.1l0.5,0.5L129.8,61.2z M127.8,54.9v-0.6h0.6L127.8,54.9z M127.1,75.5
		l-0.1-0.1l0.5-0.5l0.1,0.1L127.1,75.5z M127.7,50.6l0.5,0.5l-0.5,0.5l-0.5-0.5L127.7,50.6z M137.3,41l0.1,0.1l-0.5,0.5l-0.1-0.1
		L137.3,41z M147.5,71.5l-0.1-0.1l0.3-0.3v-1.2c0-1-0.4-1.6-1.2-1.6h-5.6l-0.4,0.4l-0.1-0.1l0.3-0.3h-2v0.3l-0.3-0.3h-3.1
		c-0.7,0-1.1,0-1.4-0.2c-0.3-0.2-0.3-0.5-0.3-1.1v-5.2v-0.5V51.3v-0.5v-4.3c0-0.4,0-0.7,0.2-0.9c0.2-0.2,0.5-0.3,1.2-0.3h11
		c0.9,0,1.4-0.6,1.4-1.6v-5.2c0-0.9-0.5-1.5-1.4-1.5h-9.4l0.6,0.6l-1,1l-0.8-0.8l-0.4,0.4l-0.9-0.9v1h-1.2V37h-0.1l-0.5,0.5
		l-0.4-0.4l-0.4,0.4l0.5,0.4l-0.5,0.5l-0.5-0.5l0.5-0.4l-0.4-0.4l-0.4,0.4l-0.4-0.4l-0.4,0.4l-0.4-0.4l-0.4,0.4l-0.5-0.5l0,0h-2.6
		c-1,0-1.7,0.6-1.7,1.6V75c0,1,0.6,1.5,1.7,1.5h9l0.9-0.9l0.5,0.5l0.4-0.4l0.4,0.4l0.5-0.5l0.9,0.9l0.9-0.9l0.6,0.6v-0.7h1.6v1h1.4
		l-0.4-0.4l0.1-0.1l0.5,0.5h3.3c0.9,0,1.2-0.4,1.2-1.5v-3.7L147.5,71.5z"/>
	<path class="st0" d="M112.3,72.8v1l-0.5-0.5L112.3,72.8z M111.9,64.6l0.3,0.3h-0.6L111.9,64.6z M109.9,69l-0.5-0.5l0.1-0.1l0.5,0.5
		L109.9,69z M107.7,73.5h-0.5V73h0.5V73.5z M105.6,76.6l-0.5-0.5l0.5-0.5l0.5,0.5L105.6,76.6z M99.3,71v-0.6h0.6L99.3,71z M98,73.3
		l-0.5-0.4l0.5-0.5l0.5,0.5L98,73.3z M96.8,68.5v-0.6h0.6L96.8,68.5z M96.5,70l-0.5-0.5l0.1-0.1l0.5,0.5L96.5,70z M93.9,68.5
		l-0.5-0.5l0.5-0.5l0.5,0.5L93.9,68.5z M93.3,70.3l-0.5-0.5l0.1-0.1l0.5,0.5L93.3,70.3z M93.5,66.5l0.4,0.4h-0.8L93.5,66.5z
		 M90.6,69.6l0.4-0.4l0.4,0.4H90.6z M97.6,42.4L97,41.8h0.6V42.4z M97,53.9l-0.4-0.5L97,53l0.5,0.5L97,53.9z M95.6,49.6L95.1,49
		l0.1-0.1l0.5,0.5L95.6,49.6z M94.7,45.6l0.5-0.5l0.1,0.1l-0.5,0.5L94.7,45.6z M94.7,44h-0.6l0.6-0.6V44z M92.8,43.7v-0.6h0.6
		L92.8,43.7z M94.3,42.1h0.5l-0.5,0.5V42.1z M94.8,42.8h0.6l-0.6,0.6V42.8z M100.2,40.2l0.1,0.1l-0.5,0.5l-0.1-0.1L100.2,40.2z
		 M104.6,40.4l0.5,0.5l-0.5,0.5l-0.4-0.5L104.6,40.4z M113.8,71v1l-0.5-0.5L113.8,71z M115.2,60.7l0.1,0.1l-0.5,0.5l-0.1-0.1
		L115.2,60.7z M115.5,64.3l0.3,0.3l-0.3,0.3V64.3z M116.6,66.3h-0.8v-0.2h0.8V66.3z M115.3,70.5l-0.5-0.5h1L115.3,70.5z M112.3,74.7
		l0.5-0.5v0.3c0.2-0.1,0.4-0.3,0.6-0.4l-0.3-0.3h0.7c0,0,0.1-0.1,0.1-0.1l-0.1-0.1l0.4-0.4v-0.2l-0.4-0.4h0.4v-0.6h0.9V71h1
		c0.2-0.3,0.4-0.5,0.5-0.8c0-0.1,0.1-0.1,0.1-0.2l0,0l-0.5-0.5h0.7c0.1-0.2,0.2-0.5,0.3-0.7h-0.4v-0.2h0.4c0.3-1.1,0.5-2.3,0.5-3.6
		c0-2-0.4-3.7-1.2-5.1c-0.8-1.4-1.8-2.5-3.1-3.4c-1.2-0.9-2.6-1.6-4.1-2.2c-1.5-0.5-2.9-1.1-4.2-1.5c-0.5-0.2-1-0.4-1.7-0.6
		c-0.7-0.2-1.3-0.5-1.9-0.9c-0.6-0.3-1.1-0.8-1.5-1.3c-0.4-0.5-0.6-1.1-0.6-1.8c0-1.3,0.5-2.2,1.4-2.7c0.9-0.5,1.9-0.8,3-0.8
		c1.2,0,2.5,0.2,3.9,0.7c1.4,0.4,2.6,0.9,3.5,1.3c1,0.4,1.7,0.1,2.2-0.8l1.8-3.7c0.4-0.8,0.6-1.3,0.5-1.6c-0.1-0.3-0.4-0.6-0.9-0.9
		c-1.2-0.8-2.7-1.4-4.6-2c-1.8-0.5-4.1-0.8-6.7-0.8c-1.8,0-3.4,0.3-5,0.8c-0.7,0.3-1.4,0.6-2.1,0.9l0.1,0.1l-0.6,0.6l0.3,0.3
		l-0.4,0.4l0.4,0.4l0.4-0.4V41l-0.4-0.3l-0.9,1h0.6v0.4h-0.8v-0.5l0.1-0.2h-0.5v-0.5l-0.7,0.7l0.4,0.4l-1,1l-0.8-0.7
		c-0.4,0.5-0.7,1-1,1.6c-0.7,1.4-1.1,3-1.1,4.8c0,1.6,0.2,2.9,0.7,4.1c0.5,1.2,1.1,2.2,1.9,3c0.8,0.9,1.7,1.6,2.8,2.2
		c1.1,0.6,2.2,1.1,3.4,1.5c2.9,1,5.2,1.9,6.8,2.8c1.6,0.9,2.4,2,2.4,3.4c0,0.3-0.1,0.7-0.2,1.1c-0.1,0.4-0.3,0.8-0.7,1.1
		c-0.3,0.3-0.8,0.6-1.5,0.8c-0.7,0.2-1.5,0.3-2.6,0.3c-0.5,0-1.1-0.1-1.9-0.2c-0.7-0.1-1.5-0.4-2.3-0.7c-0.8-0.3-1.6-0.6-2.4-1
		c-0.6-0.3-1.2-0.6-1.7-1l-0.7,0.7L93.9,66l-0.3,0.3l-0.8-0.9l0,0v1h-0.8l-0.3,0.4v1.9h-1.4l-0.4,0.6c-0.5,0.7-0.7,1.2-0.6,1.6
		c0.1,0.4,0.4,0.8,1,1.3c2.1,1.8,4.4,3,6.8,3.7c2.4,0.7,4.7,1,7,1c1.9,0,3.6-0.3,5.3-0.8C110.4,75.8,111.4,75.3,112.3,74.7
		L112.3,74.7z"/>
	<path class="st0" d="M175.3,71.9L175.3,71.9L176,71l0.1,0.1L175.3,71.9z M173.4,62h-0.6l0.6-0.7V62z M172.5,67v-0.5h0.5L172.5,67z
		 M172.3,64.7h-0.5l0.5-0.5V64.7z M172.2,68.8l-0.8-0.8l0.1-0.1L172.2,68.8L172.2,68.8z M170.7,58.2l0.2-0.6l0.2,0.4L170.7,58.2z
		 M170.2,58.6l0.2-0.6l0.2,0.4L170.2,58.6z M170.3,57.2h0.5l-0.5,0.5V57.2z M172.1,63h0.5l-0.5,0.5V63z M161.8,74.2h-0.5v-0.7h0.5
		V74.2z M161,75.1v-0.7h0.7L161,75.1z M159.9,46.6l-0.1-0.1l0.5-0.6l0.1,0.1L159.9,46.6z M159,43.9l-0.3,0.3l-0.3-0.3l0.3-0.3
		l-0.4-0.4l0.4-0.4l0.4,0.4l-0.4,0.4L159,43.9z M158.4,44.5l0.3-0.3l0.3,0.3H158.4z M158,50.1l-0.1-0.1l0.6-0.6l0.1,0.1L158,50.1z
		 M157.8,39.4l0.5,0.5h-1L157.8,39.4z M156.3,41l0.4-0.4l0.4,0.4H156.3z M156.2,45.9V47l-0.5-0.5L156.2,45.9v-1.1l0.5,0.5
		L156.2,45.9z M155.4,58.8l-0.6-0.5l0.1-0.1l0.6,0.6L155.4,58.8z M154.8,47.9l0.6,0.6l-0.1,0.1l-0.6-0.6L154.8,47.9z M153.6,41
		l0.6-0.6l0.6,0.6H153.6z M155.4,39.3l0.1,0.1l-0.6,0.6l-0.1-0.1L155.4,39.3z M155.6,42.7v0.4l-0.2-0.2L155.6,42.7z M156,42.3
		l-0.4,0.4v-0.8L156,42.3z M156.3,41l-0.6,0.6L155,41H156.3z M156.7,37.8l0.4,0.4l-0.4,0.4l-0.4-0.4L156.7,37.8z M180.5,74.8
		L180.5,74.8L181,74c0,0,0-0.1,0-0.1c-1.5-2.8-2.4-4.5-3-5.6l-0.7,0.7v-0.8h0.7c-0.4-0.7-0.6-1.1-0.7-1.4l-0.6,0.6l-0.1-0.1l0.6-0.6
		c-0.1-0.2-0.2-0.4-0.3-0.5l-0.2,0.2l-0.1-0.1l0.3-0.3l-0.8-1.4c-0.1-0.1-0.1-0.3-0.2-0.4h-0.3v-0.6c-0.4-0.8-0.9-1.6-1.3-2.4h-0.3
		v-0.6c0-0.1-0.1-0.1-0.1-0.2h-0.4v-0.7c-0.1-0.3-0.3-0.5-0.4-0.8l-0.1,0.1v-0.4c-0.5-0.9-1-1.8-1.5-2.7l-0.4,0.4v-0.5h-0.5
		l-0.1,0.1h0.1v0.1h-0.2l-0.5,0.5v-0.5h-0.2v-0.1h0.2v-0.3h0.6V55h0.3c0,0,0,0,0-0.1c-0.1-0.1-0.2-0.3-0.3-0.5v0.6h-0.8V54h0.5
		c0,0,0-0.1-0.1-0.1h-0.1v-0.1c-0.1-0.2-0.2-0.3-0.2-0.3l-0.1,0.1v-0.5h0.3c0,0,0,0,0,0v-0.1h0.1l10.7-13.4c0.5-0.7,0.4-1.3,0.2-1.6
		c-0.1-0.3-0.5-0.8-1.4-0.8h-5.5c-0.6,0-1,0.1-1.3,0.2c-0.3,0.1-0.7,0.4-1,0.8l-9.9,12.4V38.7c0-1.1-0.7-1.7-1.7-1.7h-0.4l-0.7,0.7
		l-0.3-0.3l-0.5,0.5l-0.5-0.5l-0.4,0.4l-0.4-0.4l-0.5,0.5l-0.8-0.8h0v0.9h-1.2v-0.7c-0.7,0.2-1.1,0.8-1.1,1.7v0.9l0.6,0.6h-0.6v2.6
		h0.8l-0.8,0.8h0.3h0.2l-0.5,0.5v7.3h0.4l-0.4,0.4v1h0.1l-0.1,0.1v0.2h0.8l-0.8,0.7v13.7h0.1v1.1h-0.1v6.1c0,1.1,0.6,1.7,1.7,1.7
		h5.2c0.1,0,0.2,0,0.4-0.1v-0.3h0.3v-0.6h0.1v-0.5h0.7v0.5h0.1c0.1-0.3,0.2-0.5,0.2-0.9l0.1-10.9c0-1.5,0.4-2.7,1.3-3.6l0.2-0.2
		c0.5,0.9,1.2,2.1,1.9,3.5c0.5,0.9,1,1.8,1.5,2.7h0.4v0.7h-0.1c0.1,0.2,0.2,0.4,0.3,0.6l0,0l0.5,0.5l-0.2,0.2c0,0.1,0.1,0.1,0.1,0.2
		l0.3,0.3l-0.1,0.1c0,0,0,0.1,0,0.1c1,2.1,2.1,4.2,3.1,6.3c0.3,0.7,0.7,1.1,1.2,1.3c0.4,0.1,0.8,0.2,1.4,0.2h5.2c1.9,0,2-1.2,2-1.6
		c0-0.2-0.1-0.5-0.2-0.7L180.5,74.8z"/>
	<path class="st0" d="M202.8,38.9L202.8,38.9l0.4-0.5l0.1,0.1L202.8,38.9z M200.8,59.6v-0.5h0.5L200.8,59.6z M200.7,60.7L200.7,60.7
		l0.4-0.5l0.1,0.1L200.7,60.7z M200.1,62L200.1,62l0.4-0.5l0.1,0.1L200.1,62z M199.7,50.4h0.3l-0.3,0.3V50.4z M199,64.7v-0.6
		l0.6,0.6H199z M198.3,72.7v-0.6h0.6L198.3,72.7z M197.3,74.6V74h0.6L197.3,74.6z M196.8,75.1l-0.5-0.5l0.5-0.5l0.5,0.5L196.8,75.1z
		 M196.8,76.1l-0.5-0.5l0.5-0.5l0.5,0.5L196.8,76.1z M197,70.3l0.1-0.1l0.5,0.5l-0.1,0.1L197,70.3z M197.3,42.1l0.5,0.5l-0.5,0.5
		l-0.5-0.5L197.3,42.1z M196.4,55.5l-0.5-0.5l0.5-0.5l0.5,0.5L196.4,55.5z M195.8,71.6l-0.5-0.5l0.5-0.5l0.5,0.5L195.8,71.6z
		 M196.2,68.3h-0.6v-0.6L196.2,68.3z M195.6,64.9l0.5,0.5l-0.1,0.1l-0.5-0.5L195.6,64.9z M199.1,53.5v0.3h-0.3L199.1,53.5z
		 M194.7,72l-0.4-0.4l0.4-0.4V72z M192.6,41.2v-0.6l0.6,0.6H192.6z M210.7,42.7v-1.9l-0.6,0.6v-0.7h0.6v-2.1c0-1-0.4-1.6-1.2-1.6h-5
		l0,0l-0.6,0.6V37h-4.1v0.4h-0.1V37h-12.8c-0.5,0-0.8,0.2-1,0.4c-0.2,0.3-0.2,0.7-0.2,1.1v5c0,0.5,0,0.9,0.2,1.1
		c0.2,0.3,0.5,0.4,1,0.4h5.2c0.6,0,1,0.1,1.1,0.3c0.1,0.2,0.2,0.5,0.2,0.9l0,13.3l0.9,0.9l-0.9,0.9l0,1.9L194,64h-0.6v0.4l0.6,0.6
		h-0.6l0,4.2l0.9,0.9l0.5-0.4l0.5,0.5l-0.5,0.5l-0.5-0.4l-0.8,0.8l0.6,0.6l-0.7,0.7l0,0.2h0.9v1.2h1.2l-0.4-0.5l0.4-0.5l0.4,0.4
		l0.4-0.4v-0.5h0.7l-0.6,0.6l0.4,0.4l-0.5,0.5v0l0.1,0.1h-0.1v0.9v1v0.9h4.6c1.1,0,1.6-0.4,1.6-1.2l0-10.2l-0.2,0.2l-0.1-0.1
		l0.3-0.3l0-1.6l-0.2,0.2l-0.1-0.1l0.3-0.3l0-3.8l-0.4-0.4l0.4-0.4l0-0.9h-0.8v-0.9l0.8,0.8l0-2.5h-0.2l0.2-0.2l0-4.2h-0.8v-0.9
		l0.8,0.8l0-2.6l-0.6,0.6V48h0.6l0-1.7c0-0.3,0.1-0.6,0.3-0.8c0.2-0.2,0.6-0.3,1.2-0.3h5.5c0.5,0,0.9-0.2,1-0.4
		c0.1-0.3,0.2-0.7,0.2-1.1v-0.3l-0.6-0.6H210.7z"/>
	<path class="st0" d="M237.3,73.7h-0.5v-0.5h0.5V73.7z M236.7,72.2l0.4,0.4h-0.4V72.2z M235.4,74l-0.3-0.3l0.3-0.3V74z M234.6,71.3
		L234.6,71.3l0.4-0.5l0.1,0.1L234.6,71.3z M233.8,64L233.8,64l-0.1-0.6h0.1V64z M232.6,73.8L232.6,73.8l0.4-0.5l0.1,0.1L232.6,73.8z
		 M231.7,62.4v-0.6l0.6,0.6H231.7z M227.6,65.5v-0.6l0.6,0.6H227.6z M226.7,53.9l-0.5-0.5l0.5-0.5l0.5,0.5L226.7,53.9z M224.9,68.3
		l-0.5-0.5l0.1-0.1L224.9,68.3L224.9,68.3z M224,63.2l-0.5-0.5l0.1-0.1l0.5,0.5L224,63.2z M223.2,64.7v-0.6h0.6L223.2,64.7z
		 M220.8,42.6l-0.5-0.5l0.5-0.5l0.5,0.5L220.8,42.6z M220.3,56.6l-0.5-0.5l0.1-0.1l0.5,0.5L220.3,56.6z M219,58.1l-0.5-0.5l0.5-0.5
		l0.5,0.5L219,58.1z M218,60.1l-0.5-0.5l0.5-0.5l0.5,0.5L218,60.1z M217.2,64.8l-0.4-0.4l0.4-0.4V64.8z M216.3,60.5l0.1-0.1l0.5,0.5
		l-0.1,0.1L216.3,60.5z M218.7,53.9h0.6l-0.6,0.6V53.9z M219.6,58.7L219.6,58.7L219.6,58.7L219.6,58.7z M219,62h0.6l-0.6,0.6V62z
		 M238.5,74.3h-0.3v-1h-0.8v-1.1h0.1l0.4-0.4l-0.3-1.1H237v0.4l-0.5-0.5h0.5V70h0.3l-0.3-1.1h-0.3v-0.5h0.2l-7.7-30.2
		c-0.1-0.6-0.3-0.9-0.6-1c-0.3-0.1-0.6-0.1-1-0.1h-9.1c-0.8,0-1.3,0.4-1.6,1.1l-9.2,36.8c0,0.2-0.1,0.4-0.1,0.5c0,0.2,0,0.4,0,0.5
		c0.1,0.1,0.2,0.2,0.4,0.4c0.2,0.1,0.5,0.1,1,0.1h6.4c0.3,0,0.6-0.1,1-0.2c0.3-0.2,0.5-0.5,0.6-0.9l0.2-1.4v0l0.7-3.3
		c0.1-0.2,0.1-0.4,0.2-0.5L220,62h-0.4v-2l-0.7-0.7l0.6-0.6l-0.3-0.3l0.3-0.4v0.7v0.2h0.7l0.6-0.6l0-0.2l-0.1,0.1l-0.5-0.5l-0.5,0.5
		l-0.5-0.5l0.5-0.5l0.5,0.5l0.5-0.5l0.3-0.3l0.4-2.2l1.2-6.6c0-0.3,0.1-0.4,0.3-0.4c0.1,0,0.2,0.1,0.3,0.4l1.3,6.6l1.3,6.3
		c0.1,0.3,0.1,0.7,0,0.8c-0.1,0.1-0.3,0.2-0.5,0.2h-2.6c-0.4,0-0.8,0.3-0.8,0.7l-1.3,5.7c-0.1,0.5,0.3,1,0.8,1h5.4
		c0.4,0,0.7,0.1,0.9,0.3c0.2,0.2,0.3,0.6,0.4,1.2l0.4,1.8l0.3-0.3l0.1,0.1l-0.3,0.3l0.6,2.6c0.1,0.4,0.3,0.6,0.6,0.8
		c0.3,0.2,0.6,0.3,1,0.3h1.1l0.5-0.5l0.5,0.5l0.5-0.5l0.5,0.5h0.9l0.1-0.1l0.1,0.1h2.1c0.8,0,1.2-0.2,1.3-0.6c0.1-0.4,0.1-0.7,0-1
		L238.5,74.3z"/>
	<path class="st0" d="M74.1,58C74.1,58,74.1,58,74.1,58c0.1,0.1,0.2,0.2,0.2,0.2l0,0.1l0,0.4c-0.1,0.1-0.1,0.2-0.2,0.3l-0.1,0.1
		l-0.3,0L73.6,59l-0.1,0.3L73.1,60L73,60.1l-0.2,0.2l-0.3,0.4l-0.3,0.1C72,61,72,61,71.9,61c0,0,0,0,0,0v-0.2v-0.1
		c0.1,0,0.2-0.1,0.3-0.1c0-0.1,0-0.1,0-0.2c-0.1,0.1-0.2,0.2-0.4,0.2c0,0.1-0.1,0.1-0.1,0.2c0,0,0,0,0,0l0.2,0.3
		c-0.1,0.1-0.1,0.2-0.2,0.3l-0.1-0.1l-0.1-0.1c0,0.1,0,0.2-0.1,0.3l0.1,0.1l0,0.2l-0.9-0.2l0,0l-0.2,0.3l-0.1,0.4l0,0.1
		c-0.1,0.1-0.2,0.1-0.3,0.1l0-0.1l0-1l0-0.6c0-0.2-0.1-0.3-0.1-0.4l-0.1,0l0,0.3l0.1,0.1l-0.1,0.3c-0.1,0.1-0.1,0.3-0.1,0.4
		c0,0,0,0,0,0l0,0.5c0,0,0,0.1,0,0.1c0,0.2,0,0.3,0,0.4l-0.1,0.3l-0.5-0.1l-0.1-0.2l-0.1,0.1c-0.1,0.2-0.1,0.2-0.2,0.3l-0.4,0.1h0
		H68h-0.6c-0.1-0.1-0.2-0.2-0.2-0.3l-0.4,0l-0.2-0.1l-0.5-0.2l-0.6-0.4l-0.3-0.2c0,0,0,0-0.1-0.1l-0.2,0l-0.3,0.2l-0.8,0l-0.2,0
		l-0.1-1.2v-0.6l0,0c0-0.1-0.1-0.2-0.1-0.3c0,0,0.1,0,0.1-0.1l0.1-0.7l0.2-0.9l0-0.1c0-0.1-0.1-0.2-0.1-0.3
		c-0.1-0.1-0.2-0.2-0.2-0.2l0-0.1l0-0.4c0.1-0.1,0.1-0.2,0.2-0.3l0.1-0.1l0.3,0l0.2,0.1l0.1-0.3l0.4-0.7l0.7-0.8l0.1-0.1
		c0,0,0-0.1,0-0.1c-0.2-0.2-0.3-0.4-0.4-0.7c0.1-0.3,0.3-0.5,0.7-0.5c0.1,0.3,0.2,0.5,0.4,0.8l0,0l0.2,0c0,0,0-0.1,0-0.1l-0.1-0.1
		l0-0.2l0.9,0.2l0.2-0.3l0.1-0.4c0.1-0.1,0.2-0.1,0.3-0.1l-0.1,1.7c0,0.2,0.1,0.3,0.2,0.4l0.1,0l0-0.3l-0.1-0.1l0.1-0.3
		c0.1-0.2,0.1-0.3,0.1-0.4l0-0.5c0-0.2,0-0.4-0.1-0.5l0.1-0.3l0.5,0.1l0.1,0.1c0,0,0.1,0,0.1-0.1l0,0c0.1-0.2,0.1-0.2,0.3-0.3
		l0.4-0.1h0.9c0,0,0,0,0,0c0.1,0.1,0.1,0.2,0.2,0.3l0.4,0l0.7,0.3l0.2,0.1l0.3,0.2l0.1,0l0.3,0.2c0,0,0,0,0.1,0.1l0.2,0l0.3-0.2
		l0.4,0l0.4,0l0.2,0l0.1,0.5l0.1,0.8v0.1v0.6l0,0c0,0.1,0,0.2,0.1,0.3c0,0-0.1,0-0.1,0.1l-0.1,0.7L74,57.7l0,0.1
		C74.1,57.8,74.1,57.9,74.1,58 M68.1,52.7c0.1,0.1,0.1,0.1,0.1,0.2c-0.1,0.1-0.2,0.3-0.3,0.4l-0.1-0.6H68.1z M69.4,51.4l0.3,0.1
		L69.7,52h-0.3c-0.1-0.2-0.2-0.4-0.2-0.6H69.4z M71.1,51.6v0.6v0.3l-0.3-0.1l0,0l-0.3-0.5C70.7,51.7,70.9,51.7,71.1,51.6 M73.7,49.5
		l0.1,0.2l-0.2-0.1C73.6,49.6,73.6,49.6,73.7,49.5 M84.4,48.6c-0.1-0.2-0.2-0.4-0.3-0.5c0,0,0,0,0-0.1c-1.3-0.4-3.3-0.2-4-1.3
		c0.1-0.3,0.2-0.6,0.2-0.9c0.6-2.5,0.6-5.4,1.1-8c-0.1-0.1-0.3-0.2-0.4-0.3c-1.2-0.7-2.1-0.4-4.2-0.4c-1.4,1-1.2,3.6-2.3,4.9v0.2
		v2.1c-0.8,0.4-0.4,2-2,1.6c-0.4,1.1,1.1,0.3,0.7,1.3c-0.8,1-1.8,0.3-2.6,0.3c-0.2,0-0.7,0.5-1.3,0.3c-0.3,0-0.5-0.9-0.7-1
		c-0.8-0.4-1.1,0.7-1.3,0c0.5-1.2,0.8-2.6,1-3.9c0.3-1.5,0.5-3,1-4.3c-0.5-0.5-1.1-0.9-1.6-1.1c-1.2-0.5-2.4-0.2-3,0.7
		c-0.7,1.2-0.6,2.2-1,4c0,0.1-0.6,0.5-0.7,0.7c-0.3,1-0.1,2-0.3,3c-0.3,1.2-1,1.9-0.7,2.6c-1,0-1.7,0.8-3,1c-3,0.5-5.2-0.3-5.6,2
		c1,0.9,1.9-0.1,1.3,2h3.6c0.8,0.5,1.2,1.5,2,2c-0.5,0.8-0.5,0.8-1,1c1.3,0.3,0.4,1.5-0.3,1.6c0.4,0.1,0.7,0.4,0.7,1
		c-0.8,2.2-2.8,3.4-5.9,3.3c-0.6,0.6-1.1,2.4-0.7,3c2.1-0.1,3.1,0.9,4.3,1.7c0.5,2.8-1.1,5.2-1.3,8.2c1.4,1.3,2.3,0.4,4,0.3
		c0.4-0.9,0.8-1.8,0.7-3.3c0.2-0.5,1-0.5,1-1.3c0.4-1-0.5-0.8-0.7-1.3c0.4-0.8,1.2,0.7,1.6-0.3c-0.3-0.3-1.2-0.1-1-1
		c0.8-0.9,1.5-1.8,3-2c-0.3,1,0.5,1,0.7,1.6c1.2-0.2,1.9,0.1,2.3,0.6c0.2,0.3,0.4,0.6,0.5,1c0.1,0.2,0.1,0.5,0.1,0.8
		c-0.4,0.3-0.1,1.2-1,1c0.5,1.1,0.3,2.8,0.3,4.3c1.5,0.6,2.6,1,4.3,0.7c0.6-0.5,0.7-1.3,0.9-2c0-0.1,0.1-0.2,0.1-0.3
		c0-0.1,0.6-0.5,0.7-0.7c0.1-0.3,0.1-0.7,0.2-1.1c0-0.1,0-0.1,0-0.2c0-0.6,0-1.2,0.2-1.6c0.1-0.4,0.7-0.5,1-1
		c0.9-1.4,0.2-1.9,1.7-1.3c0.1-0.5-0.1-1.2,0.3-1.3c1,0,1.9,0,2.7-0.1c1.9-0.1,3.4-0.5,3.9-2.2c0.5-1.7-0.5-3.3-1.3-4.9
		c-0.6,0.1-1.4,0.3-2.2,0.3c-0.9,0-1.7-0.1-2.1-0.6c1-0.6-0.2-2,0-2.9c0-0.2,0.1-0.3,0.3-0.4c0.5-0.1,0.6,0.1,0.7,0.4
		c0.2,0.6,0,1.4,0.9,1.2c0.5,0,1.1,0,1-0.7c-0.5,0.1-2.5-1.7-1-2.6c0.8,0,1,0.5,1.6,0.7c0.7-1.3,2.7-1.3,3.3-2.6
		C84.8,50.9,84.8,49.5,84.4,48.6"/>
	<path class="st0" d="M236,19.5h-1.3l-2.3,6.5h1.4l0.5-1.5h1.9l0.6,1.5h1.4L236,19.5z M234.8,23.3l0.4-1.4l0.2-0.9h0.1l0.2,0.9
		l0.4,1.4H234.8z"/>
	<path class="st0" d="M229.5,20.8V26h1.4v-6.5h-4.2l-0.1,2.2c0,0.4-0.1,0.8-0.1,1.2c0,0.4-0.1,0.7-0.2,1c-0.1,0.3-0.2,0.5-0.4,0.6
		c-0.2,0.1-0.4,0.2-0.7,0.2V26c0.5,0,0.9,0,1.3-0.2c0.3-0.2,0.6-0.4,0.8-0.7c0.2-0.3,0.3-0.6,0.4-1.1c0.1-0.4,0.1-0.8,0.2-1.3l0.1-2
		H229.5z"/>
	<polygon class="st0" points="220.4,20.9 223.5,20.9 223.5,19.5 219,19.5 219,26 223.5,26 223.5,24.7 220.4,24.7 220.4,23.4 
		223.2,23.4 223.2,22.1 220.4,22.1 	"/>
	<polygon class="st0" points="214.6,26 214.6,20.8 216.4,20.8 216.4,19.5 211.4,19.5 211.4,20.8 213.2,20.8 213.2,26 	"/>
	<path class="st0" d="M204.3,20.7c-0.2-0.3-0.4-0.5-0.6-0.7c-0.2-0.2-0.5-0.3-0.9-0.4c-0.3-0.1-0.6-0.1-1-0.1c-0.3,0-0.7,0-1,0.1
		c-0.3,0.1-0.6,0.2-0.8,0.4c-0.2,0.2-0.5,0.4-0.6,0.7c-0.2,0.3-0.2,0.6-0.2,1V24c0,0.4,0.1,0.7,0.2,0.9c0.2,0.3,0.4,0.5,0.6,0.7
		c0.2,0.2,0.5,0.3,0.9,0.4c0.3,0.1,0.6,0.1,1,0.1c0.3,0,0.7,0,1-0.1c0.3-0.1,0.6-0.2,0.9-0.4c0.2-0.2,0.4-0.4,0.6-0.7
		c0.2-0.3,0.2-0.6,0.2-0.9v-2.4C204.6,21.3,204.5,20.9,204.3,20.7 M203.2,24c0,0.1,0,0.3-0.1,0.4c-0.1,0.1-0.2,0.2-0.3,0.3
		c-0.1,0.1-0.3,0.1-0.4,0.2c-0.2,0-0.3,0.1-0.5,0.1s-0.3,0-0.5-0.1c-0.2,0-0.3-0.1-0.4-0.2c-0.1-0.1-0.2-0.2-0.3-0.3
		c-0.1-0.1-0.1-0.2-0.1-0.4v-2.4c0-0.2,0-0.3,0.1-0.4c0.1-0.1,0.2-0.2,0.3-0.3c0.1-0.1,0.3-0.1,0.4-0.2c0.2,0,0.3-0.1,0.5-0.1
		c0.2,0,0.3,0,0.5,0.1c0.2,0,0.3,0.1,0.4,0.2c0.1,0.1,0.2,0.2,0.3,0.3c0.1,0.1,0.1,0.3,0.1,0.4V24z"/>
	<polygon class="st0" points="194.8,26 194.8,20.8 197.4,20.8 197.4,19.5 193.4,19.5 193.4,26 	"/>
	<path class="st0" d="M190.9,20.7c-0.2-0.3-0.4-0.5-0.6-0.7c-0.2-0.2-0.5-0.3-0.9-0.4c-0.3-0.1-0.6-0.1-1-0.1c-0.3,0-0.7,0-1,0.1
		c-0.3,0.1-0.6,0.2-0.8,0.4c-0.2,0.2-0.4,0.4-0.6,0.7c-0.2,0.3-0.2,0.6-0.2,1V24c0,0.4,0.1,0.7,0.2,0.9c0.2,0.3,0.4,0.5,0.6,0.7
		c0.2,0.2,0.5,0.3,0.9,0.4c0.3,0.1,0.6,0.1,1,0.1c0.3,0,0.7,0,1-0.1c0.3-0.1,0.6-0.2,0.9-0.4c0.2-0.2,0.4-0.4,0.6-0.7
		c0.2-0.3,0.2-0.6,0.2-0.9v-2.4C191.1,21.3,191.1,20.9,190.9,20.7 M189.8,24c0,0.1,0,0.3-0.1,0.4c-0.1,0.1-0.2,0.2-0.3,0.3
		c-0.1,0.1-0.3,0.1-0.4,0.2c-0.2,0-0.3,0.1-0.5,0.1c-0.2,0-0.3,0-0.5-0.1c-0.2,0-0.3-0.1-0.4-0.2c-0.1-0.1-0.2-0.2-0.3-0.3
		c-0.1-0.1-0.1-0.2-0.1-0.4v-2.4c0-0.2,0-0.3,0.1-0.4c0.1-0.1,0.2-0.2,0.3-0.3c0.1-0.1,0.3-0.1,0.4-0.2c0.2,0,0.3-0.1,0.5-0.1
		c0.2,0,0.3,0,0.5,0.1c0.2,0,0.3,0.1,0.4,0.2c0.1,0.1,0.2,0.2,0.3,0.3c0.1,0.1,0.1,0.3,0.1,0.4V24z"/>
	<polygon class="st0" points="179.8,23.5 182.2,23.5 182.2,26 183.6,26 183.6,19.5 182.2,19.5 182.2,22.1 179.8,22.1 179.8,19.5 
		178.5,19.5 178.5,26 179.8,26 	"/>
	<path class="st0" d="M176.1,22.4c-0.4-0.4-1-0.5-1.8-0.5h-1.2v-2.3h-1.4V26h2.6c0.4,0,0.7-0.1,0.9-0.2c0.3-0.1,0.5-0.2,0.7-0.4
		c0.2-0.2,0.4-0.4,0.5-0.7c0.1-0.3,0.2-0.6,0.2-0.9C176.7,23.2,176.5,22.7,176.1,22.4 M175.1,24.6c-0.2,0.2-0.4,0.2-0.7,0.2h-1.2
		v-1.9h1.2c0.3,0,0.6,0.1,0.7,0.2c0.2,0.2,0.2,0.4,0.2,0.7C175.3,24.2,175.3,24.4,175.1,24.6"/>
	<path class="st0" d="M167.7,20.8V26h1.4v-6.5h-4.2l-0.1,2.2c0,0.4-0.1,0.8-0.1,1.2c0,0.4-0.1,0.7-0.2,1c-0.1,0.3-0.2,0.5-0.4,0.6
		c-0.2,0.1-0.4,0.2-0.7,0.2V26c0.5,0,0.9,0,1.3-0.2c0.3-0.2,0.6-0.4,0.8-0.7c0.2-0.3,0.3-0.6,0.4-1.1c0.1-0.4,0.1-0.8,0.2-1.3l0.1-2
		H167.7z"/>
	<path class="st0" d="M159.9,19.5h-1.3l-2.3,6.5h1.4l0.5-1.5h1.9l0.6,1.5h1.4L159.9,19.5z M158.6,23.3l0.4-1.4l0.2-0.9h0.1l0.2,0.9
		l0.4,1.4H158.6z"/>
	<polygon class="st0" points="151.5,20.9 154.5,20.9 154.5,19.5 150.1,19.5 150.1,26 154.5,26 154.5,24.7 151.5,24.7 151.5,23.4 
		154.3,23.4 154.3,22.1 151.5,22.1 	"/>
	<path class="st0" d="M147,24.8v-5.3h-4.1l-0.2,2.2c0,0.5-0.1,0.9-0.1,1.2c0,0.4-0.1,0.7-0.1,0.9c-0.1,0.3-0.2,0.5-0.3,0.6
		c-0.1,0.1-0.4,0.2-0.6,0.2h-0.1v2.5h1.4V26h3.4v1.2h1.4v-2.5H147z M145.7,24.8h-2c0.1-0.3,0.2-0.6,0.3-0.9c0.1-0.3,0.1-0.7,0.1-1.1
		l0.1-2h1.5V24.8z"/>
	<polygon class="st0" points="138.1,22.8 138.1,26 139.5,26 139.5,19.5 138.2,19.5 136.1,22.9 135.6,24 135.6,24 135.7,23 
		135.7,19.5 134.3,19.5 134.3,26 135.6,26 137.7,22.8 138.2,21.8 138.2,21.8 	"/>
	<path class="st0" d="M124.3,19.5H123l-2.3,6.5h1.4l0.5-1.5h1.9l0.6,1.5h1.4L124.3,19.5z M123,23.3l0.4-1.4l0.2-0.9h0.1l0.2,0.9
		l0.4,1.4H123z"/>
	<path class="st0" d="M117.7,20.8V26h1.4v-6.5h-4.2l-0.1,2.2c0,0.4-0.1,0.8-0.1,1.2c0,0.4-0.1,0.7-0.2,1c-0.1,0.3-0.2,0.5-0.4,0.6
		c-0.2,0.1-0.4,0.2-0.7,0.2V26c0.5,0,0.9,0,1.3-0.2c0.3-0.2,0.6-0.4,0.8-0.7c0.2-0.3,0.4-0.6,0.4-1.1c0.1-0.4,0.1-0.8,0.2-1.3l0.1-2
		H117.7z"/>
	<path class="st0" d="M111.6,20.7c-0.2-0.3-0.4-0.5-0.6-0.7c-0.2-0.2-0.5-0.3-0.9-0.4c-0.3-0.1-0.6-0.1-1-0.1c-0.3,0-0.7,0-1,0.1
		c-0.3,0.1-0.6,0.2-0.8,0.4c-0.2,0.2-0.4,0.4-0.6,0.7c-0.2,0.3-0.2,0.6-0.2,1V24c0,0.4,0.1,0.7,0.2,0.9c0.2,0.3,0.4,0.5,0.6,0.7
		c0.2,0.2,0.5,0.3,0.9,0.4c0.3,0.1,0.6,0.1,1,0.1c0.3,0,0.7,0,1-0.1c0.3-0.1,0.6-0.2,0.9-0.4c0.2-0.2,0.4-0.4,0.6-0.7
		c0.2-0.3,0.2-0.6,0.2-0.9v-2.4C111.9,21.3,111.8,20.9,111.6,20.7 M110.5,24c0,0.1,0,0.3-0.1,0.4c-0.1,0.1-0.2,0.2-0.3,0.3
		c-0.1,0.1-0.3,0.1-0.4,0.2c-0.2,0-0.3,0.1-0.5,0.1c-0.2,0-0.3,0-0.5-0.1c-0.2,0-0.3-0.1-0.4-0.2c-0.1-0.1-0.2-0.2-0.3-0.3
		c-0.1-0.1-0.1-0.2-0.1-0.4v-2.4c0-0.2,0-0.3,0.1-0.4c0.1-0.1,0.2-0.2,0.3-0.3c0.1-0.1,0.3-0.1,0.4-0.2c0.2,0,0.3-0.1,0.5-0.1
		c0.2,0,0.3,0,0.5,0.1c0.2,0,0.3,0.1,0.4,0.2c0.1,0.1,0.2,0.2,0.3,0.3c0.1,0.1,0.1,0.3,0.1,0.4V24z"/>
	<polygon class="st0" points="104.9,19.5 103.2,19.5 100.9,22.2 100.9,19.5 99.5,19.5 99.5,26 100.9,26 100.9,23.8 101.1,23.6 
		103.1,26 104.9,26 102.1,22.7 	"/>
	<polygon class="st0" points="89.1,19.5 89.1,26 96.8,26 96.8,19.5 95.4,19.5 95.4,24.8 93.6,24.8 93.6,19.5 92.3,19.5 92.3,24.8 
		90.5,24.8 90.5,19.5 	"/>
	<g>
		<path class="st0" d="M245,22.8c0-0.6,0.1-1.1,0.3-1.6c0.2-0.5,0.5-1,0.9-1.3c0.4-0.4,0.8-0.7,1.3-0.9c0.5-0.2,1.1-0.3,1.6-0.3
			c0.6,0,1.1,0.1,1.6,0.3c0.5,0.2,1,0.5,1.3,0.9c0.4,0.4,0.7,0.8,0.9,1.3c0.2,0.5,0.3,1.1,0.3,1.6c0,0.6-0.1,1.1-0.3,1.6
			c-0.2,0.5-0.5,1-0.9,1.3c-0.4,0.4-0.8,0.7-1.3,0.9c-0.5,0.2-1.1,0.3-1.6,0.3c-0.6,0-1.1-0.1-1.6-0.3c-0.5-0.2-1-0.5-1.3-0.9
			c-0.4-0.4-0.7-0.8-0.9-1.3C245.1,23.9,245,23.4,245,22.8z M246.3,22.8c0,0.4,0.1,0.8,0.2,1.2c0.2,0.4,0.4,0.7,0.6,1
			c0.3,0.3,0.6,0.5,1,0.6c0.4,0.2,0.8,0.2,1.2,0.2c0.4,0,0.8-0.1,1.2-0.2c0.4-0.2,0.7-0.4,0.9-0.6c0.3-0.3,0.5-0.6,0.6-1
			c0.2-0.4,0.2-0.8,0.2-1.2c0-0.4-0.1-0.8-0.2-1.2c-0.2-0.4-0.4-0.7-0.6-0.9c-0.3-0.3-0.6-0.5-0.9-0.6c-0.4-0.2-0.7-0.2-1.2-0.2
			c-0.4,0-0.8,0.1-1.2,0.2c-0.4,0.2-0.7,0.4-1,0.6c-0.3,0.3-0.5,0.6-0.6,0.9C246.4,22,246.3,22.4,246.3,22.8z M247.6,20.7h1.9
			c0.3,0,0.6,0.1,0.8,0.2c0.2,0.1,0.4,0.3,0.5,0.4c0.1,0.2,0.2,0.4,0.3,0.6c0,0.2,0,0.4,0,0.6c0,0.2-0.1,0.4-0.3,0.6
			c-0.1,0.2-0.3,0.3-0.5,0.4l1,1.5h-1.4l-0.9-1.4h-0.2v1.4h-1.2V20.7z M249.4,22.6c0.2,0,0.3,0,0.3-0.1c0.1-0.1,0.1-0.2,0.1-0.3
			c0-0.1,0-0.2-0.1-0.3c-0.1-0.1-0.2-0.1-0.3-0.1h-0.7v0.9H249.4z"/>
	</g>
</g>
</svg>
