<?xml version="1.0" encoding="utf-8"?>
<!-- Generator: Adobe Illustrator 16.0.0, SVG Export Plug-In . SVG Version: 6.00 Build 0)  -->
<!DOCTYPE svg PUBLIC "-//W3C//DTD SVG 1.1//EN" "http://www.w3.org/Graphics/SVG/1.1/DTD/svg11.dtd">
<svg version="1.1" id="Layer_1" xmlns="http://www.w3.org/2000/svg" xmlns:xlink="http://www.w3.org/1999/xlink" x="0px" y="0px"
	 width="126px" height="40px" viewBox="0 0 126 40" enable-background="new 0 0 126 40" xml:space="preserve">
<g>
	<defs>
		<rect id="SVGID_1_" width="126" height="40"/>
	</defs>
	<clipPath id="SVGID_2_">
		<use xlink:href="#SVGID_1_"  overflow="visible"/>
	</clipPath>
	<path clip-path="url(#SVGID_2_)" d="M123.4,1.9l0.2-0.7h0l0.2,0.7l0.3,1.1h-1L123.4,1.9z M124.1,0.1h-1l-1.8,5.1h1.1l0.4-1.2h1.5
		l0.4,1.2h1.1L124.1,0.1z M119.4,1.1v4.1h1.1V0.1h-3.3l-0.1,1.8c0,0.3,0,0.7-0.1,0.9c0,0.3-0.1,0.5-0.1,0.8
		c-0.1,0.2-0.2,0.4-0.3,0.5c-0.1,0.1-0.3,0.2-0.6,0.2v1c0.4,0,0.7,0,1-0.1c0.3-0.1,0.5-0.3,0.6-0.5c0.2-0.2,0.3-0.5,0.3-0.8
		c0.1-0.3,0.1-0.6,0.1-1l0.1-1.6H119.4z M112.7,1.1h2.4v-1h-3.5v5.1h3.5v-1h-2.4v-1h2.2v-1h-2.2V1.1z M109.3,5.2V1.1h1.5v-1h-4v1
		h1.5v4.1H109.3z M101.6,1.7c0-0.1,0-0.2,0.1-0.3c0.1-0.1,0.1-0.2,0.2-0.2c0.1-0.1,0.2-0.1,0.3-0.1s0.2,0,0.4,0c0.1,0,0.3,0,0.4,0
		c0.1,0,0.2,0.1,0.3,0.1s0.2,0.1,0.2,0.2c0.1,0.1,0.1,0.2,0.1,0.3v1.8c0,0.1,0,0.2-0.1,0.3c-0.1,0.1-0.1,0.2-0.2,0.2
		c-0.1,0.1-0.2,0.1-0.3,0.1c-0.1,0-0.2,0-0.4,0c-0.1,0-0.3,0-0.4,0c-0.1,0-0.2-0.1-0.3-0.1c-0.1-0.1-0.2-0.1-0.2-0.2
		c-0.1-0.1-0.1-0.2-0.1-0.3V1.7z M100.5,3.5c0,0.3,0.1,0.5,0.2,0.7c0.1,0.2,0.3,0.4,0.5,0.5c0.2,0.1,0.4,0.2,0.7,0.3
		c0.3,0.1,0.5,0.1,0.8,0.1c0.3,0,0.5,0,0.8-0.1c0.3-0.1,0.5-0.2,0.7-0.3c0.2-0.1,0.4-0.3,0.5-0.5c0.1-0.2,0.2-0.5,0.2-0.7V1.7
		c0-0.3-0.1-0.5-0.2-0.7c-0.1-0.2-0.3-0.4-0.5-0.5c-0.2-0.1-0.4-0.2-0.7-0.3C103.1,0,102.9,0,102.6,0s-0.5,0-0.8,0.1
		c-0.3,0.1-0.5,0.2-0.7,0.3c-0.2,0.1-0.4,0.3-0.5,0.5c-0.1,0.2-0.2,0.5-0.2,0.7V3.5z M97.6,5.2V1.1h2.1v-1h-3.2v5.1H97.6z M92.4,1.7
		c0-0.1,0-0.2,0.1-0.3c0.1-0.1,0.1-0.2,0.2-0.2C92.8,1.1,92.9,1.1,93,1c0.1,0,0.2,0,0.4,0c0.1,0,0.3,0,0.4,0c0.1,0,0.2,0.1,0.3,0.1
		s0.2,0.1,0.2,0.2c0.1,0.1,0.1,0.2,0.1,0.3v1.8c0,0.1,0,0.2-0.1,0.3c-0.1,0.1-0.1,0.2-0.2,0.2c-0.1,0.1-0.2,0.1-0.3,0.1
		c-0.1,0-0.2,0-0.4,0c-0.1,0-0.3,0-0.4,0c-0.1,0-0.2-0.1-0.3-0.1c-0.1-0.1-0.2-0.1-0.2-0.2c-0.1-0.1-0.1-0.2-0.1-0.3V1.7z M91.3,3.5
		c0,0.3,0.1,0.5,0.2,0.7c0.1,0.2,0.3,0.4,0.5,0.5c0.2,0.1,0.4,0.2,0.7,0.3c0.3,0.1,0.5,0.1,0.8,0.1c0.3,0,0.5,0,0.8-0.1
		c0.3-0.1,0.5-0.2,0.7-0.3c0.2-0.1,0.4-0.3,0.5-0.5c0.1-0.2,0.2-0.5,0.2-0.7V1.7c0-0.3-0.1-0.5-0.2-0.7c-0.1-0.2-0.3-0.4-0.5-0.5
		c-0.2-0.1-0.4-0.2-0.7-0.3C93.9,0,93.7,0,93.4,0c-0.3,0-0.5,0-0.8,0.1c-0.3,0.1-0.5,0.2-0.7,0.3c-0.2,0.1-0.4,0.3-0.5,0.5
		c-0.1,0.2-0.2,0.5-0.2,0.7V3.5z M87.3,3.2h1.9v2h1.1V0.1h-1.1v2h-1.9v-2h-1.1v5.1h1.1V3.2z M82.6,4.2V2.7h0.9
		c0.3,0,0.5,0.1,0.6,0.2c0.1,0.1,0.2,0.3,0.2,0.6c0,0.2-0.1,0.4-0.2,0.5c-0.1,0.1-0.3,0.2-0.6,0.2H82.6z M82.6,1.9V0.1h-1.1v5.1h2
		c0.3,0,0.5,0,0.7-0.1c0.2-0.1,0.4-0.2,0.6-0.3c0.2-0.1,0.3-0.3,0.4-0.5c0.1-0.2,0.1-0.4,0.1-0.7c0-0.5-0.1-0.9-0.4-1.2
		c-0.3-0.3-0.8-0.4-1.4-0.4H82.6z M79.3,1.1v4.1h1.1V0.1H77l-0.1,1.8c0,0.3,0,0.7-0.1,0.9c0,0.3-0.1,0.5-0.1,0.8
		c-0.1,0.2-0.2,0.4-0.3,0.5s-0.3,0.2-0.6,0.2v1c0.4,0,0.7,0,1-0.1c0.3-0.1,0.5-0.3,0.6-0.5c0.2-0.2,0.3-0.5,0.3-0.8
		c0.1-0.3,0.1-0.6,0.1-1L78,1.1H79.3z M72.7,1.9l0.2-0.7h0.1L73,1.9L73.3,3h-1L72.7,1.9z M73.3,0.1h-1l-1.8,5.1h1.1L72.1,4h1.5
		l0.4,1.2h1.1L73.3,0.1z M67.4,1.1h2.4v-1h-3.5v5.1h3.5v-1h-2.4v-1h2.2v-1h-2.2V1.1z M62.6,1.1h1.2v3.1h-1.6
		c0.1-0.2,0.2-0.4,0.2-0.7c0-0.3,0.1-0.5,0.1-0.8L62.6,1.1z M65.3,6.1V4.2h-0.5V0.1h-3.2l-0.1,1.8c0,0.4,0,0.7-0.1,1
		c0,0.3-0.1,0.5-0.1,0.7c-0.1,0.2-0.1,0.4-0.3,0.5c-0.1,0.1-0.3,0.2-0.5,0.2h-0.1v1.9h1.1v-1h2.7v1H65.3z M58.6,2.6v2.5h1.1V0.1h-1
		L57,2.7l-0.4,0.8l0,0l0.1-0.7V0.1h-1.1v5.1h1.1l1.6-2.5l0.4-0.8l0,0L58.6,2.6z M50.9,1.9l0.2-0.7h0.1l0.2,0.7L51.6,3h-1L50.9,1.9z
		 M51.6,0.1h-1l-1.8,5.1H50L50.4,4h1.5l0.4,1.2h1.1L51.6,0.1z M46.9,1.1v4.1H48V0.1h-3.3l-0.1,1.8c0,0.3,0,0.7-0.1,0.9
		c0,0.3-0.1,0.5-0.1,0.8c-0.1,0.2-0.2,0.4-0.3,0.5c-0.1,0.1-0.3,0.2-0.6,0.2v1c0.4,0,0.7,0,1-0.1c0.3-0.1,0.5-0.3,0.6-0.5
		c0.2-0.2,0.3-0.5,0.3-0.8c0.1-0.3,0.1-0.6,0.1-1l0.1-1.6H46.9z M39.6,1.7c0-0.1,0-0.2,0.1-0.3c0.1-0.1,0.1-0.2,0.2-0.2
		C40,1.1,40.1,1.1,40.2,1s0.2,0,0.4,0s0.3,0,0.4,0c0.1,0,0.2,0.1,0.3,0.1c0.1,0.1,0.2,0.1,0.2,0.2c0.1,0.1,0.1,0.2,0.1,0.3v1.8
		c0,0.1,0,0.2-0.1,0.3c-0.1,0.1-0.1,0.2-0.2,0.2c-0.1,0.1-0.2,0.1-0.3,0.1c-0.1,0-0.2,0-0.4,0s-0.3,0-0.4,0c-0.1,0-0.2-0.1-0.3-0.1
		c-0.1-0.1-0.2-0.1-0.2-0.2c-0.1-0.1-0.1-0.2-0.1-0.3V1.7z M38.5,3.5c0,0.3,0.1,0.5,0.2,0.7c0.1,0.2,0.3,0.4,0.5,0.5
		c0.2,0.1,0.4,0.2,0.7,0.3c0.3,0.1,0.5,0.1,0.8,0.1c0.3,0,0.5,0,0.8-0.1C41.6,5.1,41.8,5,42,4.8c0.2-0.1,0.4-0.3,0.5-0.5
		c0.1-0.2,0.2-0.5,0.2-0.7V1.7c0-0.3-0.1-0.5-0.2-0.7c-0.1-0.2-0.3-0.4-0.5-0.5c-0.2-0.1-0.4-0.2-0.7-0.3C41.1,0,40.9,0,40.6,0
		c-0.3,0-0.5,0-0.8,0.1c-0.3,0.1-0.5,0.2-0.7,0.3C39,0.6,38.8,0.7,38.7,1c-0.1,0.2-0.2,0.5-0.2,0.7V3.5z M38.1,0.1h-1.3L35,2.2V0.1
		h-1.1v5.1H35V3.4l0.2-0.2l1.6,2h1.3l-2.2-2.6L38.1,0.1z M26.8,0.1v5.1h6V0.1h-1.1v4.1h-1.4V0.1h-1.1v4.1h-1.4V0.1H26.8z"/>
	<path clip-path="url(#SVGID_2_)" d="M60.5,23.5h-4.2c-0.3,0-0.5,0.2-0.5,0.5v0.6h0.3v0.4l0.3,0.3v-0.2h0.4l-0.4,0.3h0.3v0.5
		l-0.3-0.4l-0.4,0.5v0h0.5v0.4l-0.5-0.4v2.6c0,0.3,0.2,0.5,0.5,0.5h4.2c0.3,0,0.6-0.1,0.7-0.3c0.1-0.2,0.2-0.4,0.2-0.8v-3.4
		c0-0.3,0-0.6-0.2-0.8S60.8,23.5,60.5,23.5 M56.5,27.9l-0.4-0.4l0.1-0.1L56.5,27.9L56.5,27.9z"/>
	<path clip-path="url(#SVGID_2_)" d="M62.4,35.5L62,35.1l0.1-0.1L62.4,35.5L62.4,35.5z M62,39.3l-0.4-0.4l0.1-0.1L62,39.3L62,39.3z
		 M60.7,37.5h0.9l-0.4,0.4L60.7,37.5z M61.7,37.5l0.3,0.3l-0.3,0.3V37.5z M58.9,38.5l-0.3-0.3h0.7L58.9,38.5z M58.7,36.5l0.3,0.3
		l-0.3,0.3V36.5z M55.7,35.8l0.2-0.2l0.2,0.2H55.7z M54.5,36.8l-0.4-0.4l0.1-0.1L54.5,36.8L54.5,36.8z M54.7,15.2L54.7,15.2
		l-0.3,0.4l-0.1-0.1L54.7,15.2z M54.3,14.4h0.4l-0.4,0.4V14.4z M55.4,14l0.3,0.3h-0.6L55.4,14z M55.7,15.4l-0.3-0.3l0.3-0.3l0.3,0.3
		L55.7,15.4z M53.2,29.3L52.9,29l0.3-0.3l0.3,0.3L53.2,29.3z M52.3,14.8v-0.4h0.4L52.3,14.8z M52.5,16.8l-0.4-0.4l0.1-0.1L52.5,16.8
		L52.5,16.8z M51.9,29.5l-0.4-0.4l0.1-0.1L51.9,29.5L51.9,29.5z M50.6,25.3v-0.4H51L50.6,25.3z M50.1,39.1L50.1,39.1l0.3-0.4
		l0.1,0.1L50.1,39.1z M50.5,22.4l0.3,0.3L50.5,23l-0.3-0.3L50.5,22.4z M57,16L57,16l-0.3,0.4l-0.1-0.1L57,16z M63.8,36.4L63.8,36.4
		l0.1-0.3v-0.8c0-0.7-0.3-1-0.8-1h-3.7l-0.3,0.3L59,34.4l0.2-0.2h-1.3v0.2l-0.2-0.2h-2.1c-0.5,0-0.7,0-0.9-0.1
		c-0.2-0.1-0.2-0.3-0.2-0.7v-3.5v-0.3v-6.7v-0.4v-2.9c0-0.3,0-0.5,0.1-0.6c0.1-0.1,0.4-0.2,0.8-0.2h7.4c0.6,0,0.9-0.4,0.9-1.1v-3.5
		c0-0.6-0.3-1-0.9-1h-6.3l0.4,0.4l-0.7,0.7l-0.6-0.6L55.4,14l-0.6-0.6V14H54v-0.8h-0.1l-0.3,0.3l-0.3-0.3L53,13.6l0.3,0.3L53,14.2
		l-0.3-0.3l0.3-0.3l-0.3-0.3l-0.3,0.3l-0.3-0.3l-0.3,0.3l-0.3-0.3l-0.3,0.3L51,13.3l0,0h-1.7c-0.7,0-1.1,0.4-1.1,1.1v24.5
		c0,0.7,0.4,1,1.1,1h6.1l0.6-0.6l0.3,0.3l0.2-0.2l0.2,0.2l0.3-0.3l0.6,0.6l0.6-0.6l0.4,0.4v-0.5h1.1v0.7h0.9l-0.3-0.3l0.1-0.1
		l0.3,0.3h2.2c0.6,0,0.8-0.3,0.8-1v-2.5L63.8,36.4z"/>
	<path clip-path="url(#SVGID_2_)" d="M40.9,37.2v0.7l-0.3-0.3L40.9,37.2z M40.6,31.7l0.2,0.2h-0.4L40.6,31.7z M39.3,34.6l-0.4-0.4
		l0.1-0.1L39.3,34.6L39.3,34.6z M37.8,37.7h-0.3v-0.3h0.3V37.7z M36.4,39.7l-0.3-0.3l0.3-0.3l0.3,0.3L36.4,39.7z M32.1,36v-0.4h0.4
		L32.1,36z M31.2,37.5l-0.3-0.3l0.3-0.3l0.3,0.3L31.2,37.5z M30.4,34.3v-0.4h0.4L30.4,34.3z M30.2,35.3l-0.4-0.4l0.1-0.1L30.2,35.3
		L30.2,35.3z M28.4,34.3L28.1,34l0.3-0.3l0.3,0.3L28.4,34.3z M28,35.5l-0.4-0.4l0.1-0.1L28,35.5L28,35.5z M28.1,32.9l0.3,0.3h-0.6
		L28.1,32.9z M26.2,35l0.3-0.3l0.3,0.3H26.2z M30.9,16.6l-0.4-0.4h0.4V16.6z M30.5,24.4l-0.3-0.3l0.3-0.3l0.3,0.3L30.5,24.4z
		 M29.6,21.5l-0.4-0.4l0.1-0.1L29.6,21.5L29.6,21.5z M28.9,18.8l0.4-0.4l0.1,0.1L28.9,18.8L28.9,18.8z M28.9,17.7h-0.4l0.4-0.4V17.7
		z M27.6,17.5v-0.4H28L27.6,17.5z M28.7,16.4H29l-0.3,0.3V16.4z M29,16.9h0.4L29,17.3V16.9z M32.7,15.1L32.7,15.1l-0.3,0.4l-0.1-0.1
		L32.7,15.1z M35.7,15.2l0.3,0.3l-0.3,0.3l-0.3-0.3L35.7,15.2z M41.9,36v0.7l-0.3-0.3L41.9,36z M42.9,29L42.9,29l-0.3,0.4l-0.1-0.1
		L42.9,29z M43.1,31.5l0.2,0.2l-0.2,0.2V31.5z M43.8,32.8h-0.5v-0.1h0.5V32.8z M43,35.6l-0.3-0.3h0.7L43,35.6z M40.9,38.5l0.3-0.3
		v0.2c0.1-0.1,0.3-0.2,0.4-0.3l-0.2-0.2h0.5c0,0,0.1-0.1,0.1-0.1l-0.1-0.1l0.3-0.3v-0.1L41.9,37h0.3v-0.4h0.6V36h0.6
		c0.1-0.2,0.3-0.4,0.4-0.5c0,0,0-0.1,0.1-0.1l0,0L43.6,35H44c0.1-0.2,0.1-0.3,0.2-0.5H44v-0.1h0.3c0.2-0.7,0.4-1.6,0.4-2.5
		c0-1.4-0.3-2.5-0.8-3.4c-0.6-0.9-1.3-1.7-2.1-2.3c-0.8-0.6-1.8-1.1-2.8-1.5c-1-0.4-2-0.7-2.8-1c-0.3-0.1-0.7-0.2-1.2-0.4
		c-0.5-0.2-0.9-0.3-1.3-0.6c-0.4-0.2-0.7-0.5-1-0.9c-0.3-0.3-0.4-0.7-0.4-1.2c0-0.9,0.3-1.5,0.9-1.8c0.6-0.3,1.3-0.5,2-0.5
		c0.8,0,1.7,0.2,2.6,0.5c0.9,0.3,1.8,0.6,2.4,0.9c0.7,0.3,1.2,0.1,1.5-0.6l1.2-2.5c0.3-0.5,0.4-0.9,0.3-1.1
		c-0.1-0.2-0.3-0.4-0.6-0.6c-0.8-0.5-1.9-1-3.1-1.3c-1.2-0.4-2.8-0.6-4.6-0.6c-1.2,0-2.3,0.2-3.4,0.6c-0.5,0.2-1,0.4-1.4,0.6
		l0.1,0.1l-0.4,0.4l0.2,0.2l-0.3,0.3l0.3,0.3l0.3-0.3v0.6L30,15.5l-0.6,0.7h0.4v0.3h-0.5V16l0-0.2h-0.3v-0.3L28.4,16l0.2,0.3L28,17
		l-0.5-0.5c-0.2,0.3-0.5,0.7-0.7,1.1c-0.5,1-0.7,2.1-0.7,3.3c0,1.1,0.2,2,0.5,2.8c0.3,0.8,0.7,1.5,1.3,2.1c0.5,0.6,1.2,1.1,1.9,1.5
		c0.7,0.4,1.5,0.7,2.3,1c2,0.7,3.5,1.3,4.6,1.9c1.1,0.6,1.7,1.4,1.7,2.3c0,0.2,0,0.5-0.1,0.8c-0.1,0.3-0.2,0.5-0.5,0.8
		c-0.2,0.2-0.6,0.4-1,0.6c-0.4,0.1-1,0.2-1.7,0.2c-0.3,0-0.8,0-1.3-0.1c-0.5-0.1-1-0.2-1.6-0.5c-0.5-0.2-1.1-0.4-1.6-0.7
		c-0.4-0.2-0.8-0.4-1.1-0.6l-0.5,0.5l-0.5-0.6l-0.2,0.2l-0.6-0.6l0,0v0.7H27l-0.2,0.3v1.3h-0.9l-0.3,0.4c-0.3,0.5-0.5,0.8-0.4,1.1
		c0.1,0.3,0.3,0.5,0.7,0.9c1.4,1.2,3,2,4.6,2.5c1.6,0.5,3.2,0.7,4.8,0.7c1.3,0,2.5-0.2,3.6-0.5C39.6,39.3,40.3,38.9,40.9,38.5
		L40.9,38.5z"/>
	<path clip-path="url(#SVGID_2_)" d="M82.6,36.5L82.6,36.5l0.5-0.6l0.1,0.1L82.6,36.5z M81.3,29.9h-0.4l0.4-0.4V29.9z M80.7,33.3
		v-0.3H81L80.7,33.3z M80.6,31.8h-0.3l0.3-0.3V31.8z M80.5,34.5L79.9,34l0.1-0.1L80.5,34.5L80.5,34.5z M79.5,27.4l0.2-0.4l0.1,0.3
		L79.5,27.4z M79.1,27.7l0.2-0.4l0.1,0.3L79.1,27.7z M79.2,26.8h0.3l-0.3,0.3V26.8z M80.4,30.6h0.3l-0.3,0.3V30.6z M73.5,38.1h-0.3
		v-0.4h0.3V38.1z M73,38.7v-0.5h0.5L73,38.7z M72.3,19.7L72.3,19.7l0.3-0.4l0.1,0.1L72.3,19.7z M71.6,17.9L71.4,18l-0.2-0.2l0.2-0.2
		l-0.3-0.3l0.3-0.3l0.3,0.3l-0.3,0.3L71.6,17.9z M71.2,18.3l0.2-0.2l0.2,0.2H71.2z M70.9,22L70.9,22l0.3-0.4l0.1,0.1L70.9,22z
		 M70.8,14.8l0.3,0.3h-0.7L70.8,14.8z M69.8,16l0.3-0.3l0.3,0.3H69.8z M69.7,19.2V20l-0.4-0.4L69.7,19.2v-0.7l0.4,0.4L69.7,19.2z
		 M69.2,27.8l-0.4-0.4l0.1-0.1L69.2,27.8L69.2,27.8z M68.8,20.5l0.4,0.4L69.1,21L68.8,20.5L68.8,20.5z M68,16l0.4-0.4l0.4,0.4H68z
		 M69.2,14.8L69.2,14.8l-0.3,0.4l-0.1-0.1L69.2,14.8z M69.4,17.1v0.3l-0.1-0.1L69.4,17.1z M69.7,16.8l-0.3,0.3v-0.5L69.7,16.8z
		 M69.8,16l-0.4,0.4L69,16H69.8z M70.1,13.8l0.3,0.3l-0.3,0.3l-0.3-0.3L70.1,13.8z M86,38.5L86,38.5l0.4-0.5c0,0,0,0,0-0.1
		c-1-1.9-1.6-3-2-3.8l-0.5,0.5v-0.5h0.5c-0.2-0.5-0.4-0.7-0.5-0.9l-0.4,0.4l-0.1-0.1l0.4-0.4c-0.1-0.2-0.1-0.3-0.2-0.3l-0.2,0.2
		l-0.1-0.1l0.2-0.2l-0.5-0.9c0-0.1-0.1-0.2-0.1-0.3h-0.2v-0.4c-0.3-0.5-0.6-1.1-0.9-1.6h-0.2v-0.4c0,0,0-0.1-0.1-0.1h-0.2v-0.4
		c-0.1-0.2-0.2-0.3-0.3-0.5l-0.1,0.1v-0.2c-0.3-0.6-0.7-1.2-1-1.8l-0.3,0.3V26h-0.3l0,0h0.1v0.1h-0.1L79,26.4v-0.3h-0.1V26H79v-0.2
		h0.4v-0.6h0.2c0,0,0,0,0,0c0-0.1-0.1-0.2-0.2-0.3v0.4h-0.5v-0.7h0.4c0,0,0-0.1,0-0.1h0v-0.1c-0.1-0.1-0.1-0.2-0.1-0.2l-0.1,0.1
		v-0.4h0.2c0,0,0,0,0,0v-0.1h0.1l7.2-8.9c0.3-0.5,0.2-0.9,0.2-1c-0.1-0.2-0.3-0.5-1-0.5h-3.7c-0.4,0-0.7,0-0.9,0.1
		c-0.2,0.1-0.4,0.3-0.7,0.5l-6.6,8.2v-7.7c0-0.7-0.4-1.2-1.2-1.2h-0.3l-0.5,0.5l-0.2-0.2l-0.3,0.3l-0.3-0.3l-0.2,0.2l-0.2-0.2
		l-0.3,0.3l-0.6-0.6h0v0.6h-0.8v-0.5c-0.5,0.2-0.7,0.6-0.7,1.1v0.6l0.4,0.4H68v1.7h0.5L68,17.7h0.2h0.1L68,18.1V23h0.3L68,23.2v0.6
		H68L68,23.9V24h0.5L68,24.5v9.1h0v0.7h0v4.1c0,0.7,0.4,1.2,1.1,1.2h3.5c0.1,0,0.2,0,0.2,0v-0.2H73V39H73v-0.3h0.5V39h0.1
		c0.1-0.2,0.1-0.4,0.1-0.6l0-7.3c0-1,0.3-1.8,0.9-2.4l0.1-0.1c0.3,0.6,0.8,1.4,1.3,2.3c0.3,0.6,0.7,1.2,1,1.8h0.3v0.4h0
		c0.1,0.2,0.2,0.3,0.2,0.4l0,0l0.3,0.3L77.7,34c0,0,0,0.1,0.1,0.1l0.2,0.2l-0.1,0.1c0,0,0,0,0,0.1c0.7,1.4,1.4,2.8,2.1,4.2
		c0.2,0.5,0.5,0.7,0.8,0.9c0.3,0.1,0.6,0.1,0.9,0.1h3.5c1.3,0,1.4-0.8,1.4-1.1c0-0.2-0.1-0.3-0.1-0.5L86,38.5z"/>
	<path clip-path="url(#SVGID_2_)" d="M100.3,14.5L100.3,14.5l0.3-0.4l0,0L100.3,14.5z M99,28.4v-0.3h0.3L99,28.4z M98.8,29.2
		L98.8,29.2l0.3-0.4l0,0L98.8,29.2z M98.5,30L98.5,30l0.3-0.4l0,0L98.5,30z M98.2,22.3h0.2l-0.2,0.2V22.3z M97.7,31.8v-0.4l0.4,0.4
		H97.7z M97.2,37.2v-0.4h0.4L97.2,37.2z M96.6,38.5V38H97L96.6,38.5z M96.2,38.8l-0.3-0.3l0.3-0.3l0.3,0.3L96.2,38.8z M96.2,39.5
		l-0.3-0.3l0.3-0.3l0.3,0.3L96.2,39.5z M96.3,35.6L96.3,35.6l0.4,0.3L96.7,36L96.3,35.6z M96.6,16.7l0.3,0.3l-0.3,0.3L96.2,17
		L96.6,16.7z M95.9,25.7l-0.3-0.3l0.3-0.3l0.3,0.3L95.9,25.7z M95.6,36.5l-0.3-0.3l0.3-0.3l0.3,0.3L95.6,36.5z M95.8,34.2h-0.4v-0.4
		L95.8,34.2z M95.4,32l0.4,0.4l-0.1,0.1L95.4,32L95.4,32z M97.8,24.3v0.2h-0.2L97.8,24.3z M94.8,36.7l-0.3-0.3l0.3-0.3V36.7z
		 M93.4,16.1v-0.4l0.4,0.4H93.4z M105.6,17.1v-1.3l-0.4,0.4v-0.5h0.4v-1.4c0-0.7-0.3-1.1-0.8-1.1h-3.4l0,0l-0.4,0.4v-0.5h-2.7v0.2
		h-0.1v-0.2h-8.6c-0.3,0-0.5,0.1-0.7,0.3c-0.1,0.2-0.1,0.5-0.1,0.8v3.4c0,0.3,0,0.6,0.1,0.8c0.1,0.2,0.3,0.3,0.7,0.3h3.5
		c0.4,0,0.7,0.1,0.8,0.2c0.1,0.1,0.1,0.3,0.1,0.6l0,8.9l0.6,0.6l-0.6,0.6l0,1.3l0.4,0.4h-0.4v0.3l0.4,0.4h-0.4l0,2.8l0.6,0.6
		l0.3-0.3l0.3,0.3l-0.3,0.3l-0.3-0.3L94,36.1l0.4,0.4L93.9,37l0,0.1h0.6v0.8h0.8L95,37.6l0.3-0.4l0.3,0.3l0.3-0.3v-0.3h0.5l-0.4,0.4
		l0.3,0.3l-0.4,0.3v0l0.1,0.1h-0.1v0.6v0.7v0.6H99c0.7,0,1.1-0.3,1.1-0.8l0-6.8l-0.2,0.1l0,0l0.2-0.2l0-1l-0.2,0.2l0,0l0.2-0.2
		l0-2.5l-0.3-0.3l0.3-0.3l0-0.6h-0.5v-0.6l0.5,0.5l0-1.7h-0.2l0.2-0.2l0-2.8h-0.5v-0.6l0.5,0.5l0-1.8l-0.4,0.4v-0.5h0.4l0-1.1
		c0-0.2,0.1-0.4,0.2-0.5c0.1-0.1,0.4-0.2,0.8-0.2h3.7c0.3,0,0.6-0.1,0.7-0.3c0.1-0.2,0.2-0.5,0.2-0.8v-0.2l-0.4-0.4H105.6z"/>
	<path clip-path="url(#SVGID_2_)" d="M124.7,37.9h-0.3v-0.3h0.3V37.9z M124.2,36.9l0.2,0.2h-0.2V36.9z M123.3,38.1l-0.2-0.2l0.2-0.2
		V38.1z M122.9,36.3L122.9,36.3l0.3-0.4l0,0L122.9,36.3z M122.3,31.3L122.3,31.3l-0.1-0.4h0.1V31.3z M121.5,37.9L121.5,37.9l0.3-0.4
		l0,0L121.5,37.9z M120.9,30.3v-0.4l0.4,0.4H120.9z M118.1,32.4V32l0.4,0.4H118.1z M117.5,24.6l-0.3-0.3l0.3-0.3l0.3,0.3L117.5,24.6
		z M116.3,34.3L116,34l0,0L116.3,34.3L116.3,34.3z M115.7,30.8l-0.4-0.4l0.1-0.1L115.7,30.8L115.7,30.8z M115.1,31.8v-0.4h0.4
		L115.1,31.8z M113.6,17l-0.3-0.3l0.3-0.3l0.3,0.3L113.6,17z M113.2,26.4l-0.4-0.4l0.1-0.1L113.2,26.4L113.2,26.4z M112.3,27.4
		l-0.3-0.3l0.3-0.3l0.3,0.3L112.3,27.4z M111.6,28.7l-0.3-0.3l0.3-0.3l0.3,0.3L111.6,28.7z M111.1,31.9l-0.3-0.3l0.3-0.3V31.9z
		 M110.5,29L110.5,29l0.4,0.3l-0.1,0.1L110.5,29z M112.1,24.6h0.4l-0.4,0.4V24.6z M112.7,27.8L112.7,27.8L112.7,27.8L112.7,27.8z
		 M112.3,30h0.4l-0.4,0.4V30z M125.4,38.3h-0.2v-0.7h-0.5v-0.7h0.1l0.3-0.3l-0.2-0.7h-0.4v0.2l-0.3-0.3h0.3v-0.4h0.2l-0.2-0.8h-0.2
		v-0.3h0.1L119.2,14c-0.1-0.4-0.2-0.6-0.4-0.7c-0.2-0.1-0.4-0.1-0.6-0.1H112c-0.5,0-0.9,0.3-1.1,0.7l-6.2,24.7
		c0,0.1-0.1,0.2-0.1,0.4c0,0.1,0,0.2,0,0.3c0,0.1,0.1,0.2,0.3,0.2c0.1,0.1,0.4,0.1,0.6,0.1h4.3c0.2,0,0.4,0,0.6-0.2
		c0.2-0.1,0.3-0.3,0.4-0.6l0.2-0.9v0l0.5-2.2c0-0.1,0.1-0.2,0.1-0.3L113,30h-0.3v-1.3l-0.4-0.4l0.4-0.4l-0.2-0.2l0.2-0.3v0.5v0.1
		h0.5l0.4-0.4l0-0.1l-0.1,0.1l-0.3-0.3l-0.3,0.3l-0.3-0.3l0.3-0.3l0.3,0.3l0.3-0.3l0.2-0.2l0.3-1.5l0.8-4.4c0-0.2,0.1-0.3,0.2-0.2
		c0.1,0,0.1,0.1,0.2,0.2l0.9,4.4l0.9,4.2c0.1,0.2,0.1,0.4,0,0.5c-0.1,0.1-0.2,0.2-0.3,0.2h-1.7c-0.3,0-0.5,0.2-0.6,0.5l-0.9,3.8
		c-0.1,0.4,0.2,0.7,0.6,0.7h3.6c0.3,0,0.5,0,0.6,0.2c0.1,0.1,0.2,0.4,0.3,0.8l0.3,1.2L119,37l0,0l-0.2,0.2l0.4,1.8
		c0.1,0.3,0.2,0.4,0.4,0.6c0.2,0.1,0.4,0.2,0.7,0.2h0.8l0.3-0.3l0.3,0.3l0.3-0.3l0.3,0.3h0.6l0.1-0.1l0.1,0.1h1.4
		c0.5,0,0.8-0.1,0.9-0.4c0.1-0.3,0.1-0.5,0-0.6L125.4,38.3z"/>
	<path clip-path="url(#SVGID_2_)" d="M13.6,26.9C13.6,26.9,13.6,26.9,13.6,26.9c0.1,0.1,0.1,0.1,0.2,0.1l0,0.1l0,0.3
		c0,0.1-0.1,0.2-0.1,0.2l0,0l-0.2,0l-0.2-0.1l-0.1,0.2L13,28.2l-0.1,0.1l-0.1,0.2l-0.2,0.2l-0.2,0.1c-0.1,0-0.1,0.1-0.1,0.1
		c0,0,0,0,0,0v-0.1v0c0.1,0,0.1,0,0.2-0.1c0,0,0-0.1,0-0.1c-0.1,0.1-0.2,0.1-0.3,0.1c0,0,0,0.1-0.1,0.1c0,0,0,0,0,0l0.1,0.2
		c0,0.1-0.1,0.1-0.1,0.2l-0.1-0.1L11.9,29c0,0.1,0,0.1,0,0.2l0.1,0l0,0.1l-0.6-0.1l0,0l-0.1,0.2L11,29.5l0,0c-0.1,0-0.1,0.1-0.2,0.1
		l0-0.1l0-0.6l0-0.4c0-0.1,0-0.2-0.1-0.2l-0.1,0l0,0.2l0.1,0l0,0.2c0,0.1-0.1,0.2-0.1,0.3c0,0,0,0,0,0l0,0.3c0,0,0,0,0,0.1
		c0,0.1,0,0.2,0,0.3l0,0.2l-0.3-0.1l-0.1-0.1l0,0.1c0,0.1-0.1,0.2-0.2,0.2l-0.2,0h0H9.7H9.3c0-0.1-0.1-0.1-0.1-0.2l-0.2,0l-0.1,0
		l-0.3-0.1l-0.4-0.2L8,29.2c0,0,0,0,0,0l-0.1,0l-0.2,0.1l-0.5,0l-0.1,0l-0.1-0.8v-0.4l0,0c0-0.1,0-0.1,0-0.2c0,0,0,0,0.1,0l0-0.4
		l0.1-0.6l0,0c0-0.1,0-0.1,0-0.2c-0.1-0.1-0.1-0.1-0.2-0.1l0-0.1l0-0.3c0-0.1,0.1-0.2,0.1-0.2l0,0l0.2,0L7.4,26l0.1-0.2l0.2-0.4
		l0.5-0.5l0.1,0c0,0,0,0,0-0.1C8,24.6,8,24.5,8,24.3c0.1-0.2,0.2-0.3,0.4-0.3c0,0.2,0.1,0.3,0.3,0.5l0,0l0.1,0c0,0,0,0,0-0.1
		l-0.1-0.1l0-0.1l0.6,0.1l0.1-0.2l0.1-0.3c0.1,0,0.1-0.1,0.2-0.1l0,1.1c0,0.1,0,0.2,0.1,0.2l0.1,0l0-0.2l-0.1,0l0-0.2
		c0-0.1,0.1-0.2,0.1-0.3l0-0.3c0-0.1,0-0.2,0-0.4l0-0.2l0.3,0.1l0.1,0.1c0,0,0,0,0.1,0l0,0c0-0.1,0.1-0.2,0.2-0.2l0.2-0.1h0.6
		c0,0,0,0,0,0c0,0.1,0.1,0.1,0.1,0.2l0.2,0l0.4,0.2l0.1,0.1l0.2,0.1l0,0l0.2,0.1c0,0,0,0,0,0l0.1,0l0.2-0.1l0.2,0l0.3,0l0.1,0l0,0.3
		l0.1,0.5v0v0.4l0,0c0,0.1,0,0.1,0,0.2c0,0,0,0-0.1,0l0,0.4l-0.1,0.6l0,0C13.6,26.8,13.6,26.8,13.6,26.9 M9.7,23.5
		c0,0,0.1,0.1,0.1,0.1c0,0.1-0.1,0.2-0.2,0.2l-0.1-0.4H9.7z M10.6,22.7l0.2,0.1l0,0.3h-0.2c-0.1-0.1-0.1-0.2-0.2-0.4H10.6z
		 M11.7,22.9v0.4v0.2l-0.2-0.1l0,0L11.3,23C11.4,22.9,11.6,22.9,11.7,22.9 M13.4,21.5l0,0.2l-0.2,0C13.3,21.6,13.3,21.5,13.4,21.5
		 M20.2,20.9c-0.1-0.1-0.1-0.2-0.2-0.3c0,0,0,0,0,0c-0.8-0.3-2.1-0.2-2.5-0.8c0.1-0.2,0.1-0.4,0.2-0.6c0.4-1.6,0.4-3.5,0.7-5.1
		c-0.1-0.1-0.2-0.1-0.3-0.2c-0.8-0.5-1.4-0.3-2.7-0.2c-0.9,0.6-0.8,2.3-1.5,3.2v0.1v1.4c-0.5,0.3-0.3,1.3-1.3,1.1
		c-0.3,0.7,0.7,0.2,0.4,0.8c-0.5,0.6-1.2,0.2-1.7,0.2c-0.1,0-0.4,0.3-0.8,0.2c-0.2,0-0.3-0.6-0.4-0.6c-0.5-0.2-0.7,0.4-0.8,0
		c0.3-0.8,0.5-1.6,0.7-2.5c0.2-0.9,0.3-1.9,0.6-2.8c-0.3-0.3-0.7-0.6-1-0.7c-0.8-0.3-1.5-0.1-1.9,0.5c-0.5,0.7-0.4,1.4-0.6,2.5
		c0,0.1-0.4,0.3-0.4,0.4c-0.2,0.7-0.1,1.3-0.2,1.9C6.1,20,5.6,20.5,5.8,21c-0.7,0-1.1,0.5-1.9,0.6c-1.9,0.3-3.3-0.2-3.6,1.3
		c0.6,0.6,1.2-0.1,0.8,1.3h2.3C4,24.5,4.2,25,4.8,25.4c-0.3,0.5-0.3,0.5-0.6,0.6c0.8,0.2,0.3,1-0.2,1.1c0.3,0.1,0.4,0.3,0.4,0.6
		c-0.5,1.4-1.8,2.2-3.8,2.1c-0.4,0.4-0.7,1.5-0.4,1.9c1.3-0.1,2,0.6,2.8,1.1C3.2,34.6,2.1,36.1,2,38c0.9,0.8,1.5,0.3,2.5,0.2
		c0.3-0.6,0.5-1.2,0.4-2.1c0.2-0.3,0.7-0.3,0.6-0.8c0.2-0.7-0.3-0.5-0.4-0.8c0.3-0.5,0.8,0.4,1.1-0.2C6,34,5.5,34.2,5.6,33.6
		c0.5-0.6,0.9-1.2,1.9-1.3C7.3,33,7.8,33,7.9,33.4c0.7-0.1,1.2,0,1.5,0.4c0.1,0.2,0.2,0.4,0.3,0.6c0,0.2,0.1,0.3,0.1,0.5
		c-0.2,0.2-0.1,0.8-0.6,0.6c0.3,0.7,0.2,1.8,0.2,2.7c0.9,0.4,1.6,0.6,2.8,0.4c0.4-0.3,0.5-0.8,0.6-1.3c0-0.1,0-0.1,0.1-0.2
		c0-0.1,0.4-0.3,0.4-0.4c0.1-0.2,0.1-0.5,0.1-0.7c0,0,0-0.1,0-0.1c0-0.4,0-0.7,0.1-1c0.1-0.3,0.5-0.3,0.6-0.6
		c0.6-0.9,0.1-1.2,1.1-0.8c0-0.3-0.1-0.8,0.2-0.8c0.6,0,1.2,0,1.7-0.1c1.2-0.1,2.2-0.3,2.5-1.4c0.3-1.1-0.4-2.1-0.8-3.2
		c-0.4,0.1-0.9,0.2-1.4,0.2c-0.6,0-1.1-0.1-1.4-0.4c0.6-0.4-0.1-1.3,0-1.8c0-0.1,0.1-0.2,0.2-0.3c0.3,0,0.4,0.1,0.5,0.3
		c0.1,0.4,0,0.9,0.6,0.8c0.3,0,0.7,0,0.6-0.4c-0.3,0.1-1.6-1.1-0.6-1.7c0.5,0,0.7,0.3,1.1,0.4c0.4-0.8,1.7-0.8,2.1-1.7
		C20.4,22.4,20.5,21.5,20.2,20.9"/>
</g>
</svg>
