<?xml version="1.0" standalone="no"?> 
<!DOCTYPE svg PUBLIC "-//W3C//DTD SVG 1.1//EN" "http://www.w3.org/Graphics/SVG/1.1/DTD/svg11.dtd" >
<svg xmlns="http://www.w3.org/2000/svg">
<defs>
  <font id="FontIcons" horiz-adv-x="173.3">
    <font-face font-family="FontIcons"
      units-per-em="100" ascent="100"
      descent="0" />
    <missing-glyph horiz-adv-x="0" />
    <glyph glyph-name="arrow-down"
      unicode="&#xE001;"
      horiz-adv-x="100" d=" M49.7 30.2L23 70.2H76.3L49.7 30.2z" />
    <glyph glyph-name="arrow-left"
      unicode="&#xE002;"
      horiz-adv-x="145" d=" M33.9 60.2L62.5 87.6C63.3 88.4 63.3 89.6 62.5 90.3L52.9 99.4C52.1 100.2 50.8 100.2 50 99.4L1.4 53.1C-0.4 51.4 -0.4 48.6 1.4 46.9L50 0.6C50.8 -0.1 52.1 -0.2 52.9 0.6L62.5 9.4C63.3 10.1 63.3 11.4 62.5 12.1L34 39.1C33.1 39.9 33.7 41.4 35 41.4H142.9C144 41.4 145 42.2 145 43.3V56C145 57.1 144 57.9 142.9 57.9H34.9C33.7 57.9 33.1 59.4 33.9 60.2z" />
    <glyph glyph-name="arrow-right"
      unicode="&#xE003;"
      horiz-adv-x="145" d=" M111 39.8L82.5 12.4C81.7 11.6 81.7 10.4 82.5 9.7L92.1 0.6C92.9 -0.2 94.2 -0.2 95 0.6L143.6 46.9C145.4 48.6 145.4 51.4 143.6 53.1L94.9 99.4C94.1 100.1 92.8 100.2 92 99.4L82.4 90.6C81.6 89.9 81.6 88.6 82.4 87.9L110.9 60.9C111.8 60.1 111.2 58.6 109.9 58.6H2.1C1 58.6 0 57.8 0 56.8V44C0 42.9 1 42.1 2.1 42.1H110C111.3 42.1 111.9 40.6 111 39.8z" />
    <glyph glyph-name="arrow-up"
      unicode="&#xE004;"
      horiz-adv-x="100" d=" M49.7 70.2L76.4 30.2H23L49.7 70.2z" />
    <glyph glyph-name="arrow2-down"
      unicode="&#xE005;"
      horiz-adv-x="81.2" d=" M81.2 39.6L67.7 52.8L50.2 35.7V100H31V35.7L13.5 52.8L0 39.6L27.1 13.2L40.6 0L54.2 13.2H54.1" />
    <glyph glyph-name="arrow2-up"
      unicode="&#xE006;"
      horiz-adv-x="81.2" d=" M81.2 60.4L54.2 86.8L40.6 100L27.1 86.8L0 60.4L13.5 47.2L31 64.3V0H50.2V64.3L67.7 47.2" />
    <glyph glyph-name="bars"
      unicode="&#xE007;"
      horiz-adv-x="120" d=" M0 100V80H120V100H0zM0 40H120V60H0V40zM30 0H120V20H30V0z" />
    <glyph glyph-name="circle"
      unicode="&#xE008;"
      horiz-adv-x="100" d=" M50 70C61.1 70 70 61.1 70 50S61.1 30 50 30S30 38.9 30 50S38.9 70 50 70z" />
    <glyph glyph-name="cross"
      unicode="&#xE009;"
      horiz-adv-x="100" d=" M100 85.7L86.1 100L49.7 62.6L13.8 99.6L0 85.4L36 48.4L2.8 14.3L16.7 0L49.9 34.1L82.6 0.4L96.4 14.6L63.6 48.3" />
    <glyph glyph-name="cross2"
      unicode="&#xE00A;"
      horiz-adv-x="100" d=" M100 88.1L88.4 100L49.8 60.4L11.5 99.6L0 87.9L38.3 48.7L2.4 11.9L13.9 0L49.9 36.8L85.5 0.3L97 12.1L61.4 48.6" />
    <glyph glyph-name="cross3"
      unicode="&#xE00B;"
      horiz-adv-x="100" d=" M100 93.9L94.1 100L49.9 55.3L5.9 99.8L0 93.8L43.9 49.3L1.2 6.1L7.2 0L49.9 43.3L92.5 0.2L98.4 6.2L55.9 49.3" />
    <glyph glyph-name="globe"
      unicode="&#xE00C;"
      horiz-adv-x="100" d=" M49.853 100C22.363 100 0 77.63 0 50.146C0 22.656 22.362 0.293 49.853 0.293S99.706 22.655 99.706 50.146C99.706 77.63 77.343 100 49.853 100zM92.37 50.146C92.37 40.421 89.07 31.451 83.563 24.278C82.005 25.502 80.35 28.786 81.908 32.194C83.478 35.622 83.888 43.554 83.532 46.641C83.186 49.725 81.585 57.163 77.226 57.234C72.876 57.298 69.89 58.737 67.303 63.898C61.938 74.635 77.375 76.696 72.009 82.648C70.505 84.314 62.749 75.772 61.612 87.158C61.536 87.965 62.316 89.182 63.354 90.448C80.198 84.788 92.369 68.868 92.369 50.148zM44.01 92.243C42.994 90.263 40.31 89.456 38.677 87.969C35.129 84.755 33.604 85.199 31.687 82.115C29.763 79.031 23.552 74.585 23.552 72.355C23.552 70.128 26.689 67.493 28.258 68.005C29.828 68.522 33.96 68.493 36.394 67.638C38.829 66.778 56.722 65.918 51.02 50.792C49.214 45.984 41.295 46.795 39.184 38.827C38.871 37.663 37.778 32.67 37.702 31.037C37.572 28.517 39.487 19 37.052 19C34.609 19 28.03 27.51 28.03 29.052C28.03 30.594 26.32 36.002 26.32 40.632S18.445 45.188 18.445 51.342C18.445 56.9 22.718 59.658 21.755 62.319C20.815 64.966 13.305 65.064 10.18 65.381C15.644 79.568 28.507 90.1 44.01 92.244zM36.48 9.8C39.034 11.146 39.293 12.886 41.61 12.983C44.26 13.103 46.413 14.017 49.4 14.671C52.05 15.253 56.787 17.941 60.964 18.286C64.48 18.571 71.424 18.1 73.297 14.703C66.567 10.237 58.507 7.626 49.854 7.626C45.179 7.629 40.689 8.396 36.481 9.8z" />
    <glyph glyph-name="location"
      unicode="&#xE00D;"
      horiz-adv-x="62.5" d=" M31.255 100C13.99 100 0 86.005 0 68.745C0 38.903 31.255 -0.017 31.255 -0.017S62.51 38.903 62.51 68.745C62.51 86.005 48.517 100 31.255 100zM31.255 51.492C21.932 51.492 14.377 59.049 14.377 68.37S21.932 85.248 31.255 85.248C40.575 85.248 48.133 77.691 48.133 68.37S40.576 51.492 31.255 51.492z" />
    <glyph glyph-name="logo-mini"
      unicode="&#xE00E;"
      horiz-adv-x="173.3" d=" M51.7 46.7L53.9 54.3C54.3 55.5 53.3 56.8 52.1 56.8H42C41.1 56.8 40.4 56.2 40.1 55.4L37.9 47.8C37.5 46.6 38.5 45.3 39.8 45.3H49.9C50.7 45.3 51.5 45.9 51.7 46.7M82.7 29.9H64.5C63.7 29.9 62.9 29.3 62.6 28.5C61.6 25.1 60.6 22.1 59.9 19.4C59 16.4 58.2 13.8 57.6 11.6C56.9 9.4 56.4 7.5 56 6C55.7 5.1 55.5 4.2 55.3 3.4C55.1 2.6 54.3 2 53.4 2H41.2C39.9 2 39 3.2 39.3 4.5L45.9 27.5C46.3 28.7 45.3 30 44 30H33.9C33 30 32.3 29.4 32 28.6L24.8 3.5C24.6 2.7 23.8 2.1 22.9 2.1H10.5C9.2 2.1 8.3 3.3 8.6 4.6L15.3 27.6C15.7 28.8 14.7 30.1 13.4 30.1H1.9C0.7 30.1 -0.2 31.2 0 32.4L2.3 43.9C2.5 44.8 3.3 45.4 4.2 45.4H19.2C20 45.4 20.8 45.9 21 46.7C21.6 48.3 22.1 49.8 22.5 51C22.8 52 23.2 53.1 23.5 54.3C23.8 55.5 22.9 56.7 21.6 56.7H7C5.8 56.7 4.9 57.8 5.1 59L7.5 70.6C7.7 71.5 8.5 72.1 9.4 72.1H27.3C28.1 72.1 28.9 72.6 29.1 73.5C30.3 77.3 31.5 81.3 32.6 85.4C33.8 89.5 34.9 93.5 36 97.3C36.2 98.1 37 98.7 37.9 98.7H50.5C51.8 98.7 52.7 97.5 52.4 96.2L46.1 74.7C45.7 73.5 46.7 72.2 48 72.2H58C58.9 72.2 59.6 72.8 59.9 73.6L66.8 97.3C67 98.1 67.8 98.7 68.7 98.7H81.1C82.4 98.7 83.3 97.4 82.9 96.2L76.4 74.7C76 73.5 77 72.2 78.2 72.2H90.4C91.7 72.2 92.6 71 92.3 69.8L89.1 58.2C88.9 57.4 88.1 56.8 87.2 56.8H72.5C71.6 56.8 70.9 56.2 70.6 55.4L68.5 47.8C68.2 46.6 69.1 45.4 70.4 45.4H85.2C86.4 45.4 87.4 44.3 87.1 43.1L84.6 31.6C84.4 30.6 83.6 29.9 82.7 29.9M173.3 30C173.3 25 172.4 20.7 170.5 17C168.7 13.3 166.2 10.2 163.1 7.7C160 5.2 156.3 3.3 152.2 2C148 0.7 143.6 0.1 139 0.1C133.3 0.1 127.4 0.9 121.4 2.6C115.4 4.3 109.7 7.4 104.5 11.8C103 13 102.2 14 102 15C101.8 16 102.3 17.3 103.6 19L109.8 27.6C111.2 29.3 112.3 30 113.3 29.8C114.2 29.6 115.3 29.1 116.5 28.2C118.1 27 119.9 26 121.9 24.9C123.9 23.9 125.9 23 127.9 22.3C129.9 21.6 131.8 21 133.7 20.6C135.5 20.2 137.1 20 138.4 20C141 20 143.2 20.3 144.8 20.8C146.4 21.3 147.7 22 148.5 22.9C149.3 23.7 149.9 24.7 150.2 25.7C150.5 26.7 150.6 27.6 150.6 28.5C150.6 32 148.6 34.8 144.5 37.1C140.4 39.3 134.8 41.6 127.5 44.1C124.5 45.1 121.7 46.3 119 47.7C116.3 49.2 114 51 112 53.2S108.4 57.9 107.2 60.8C106 63.7 105.5 67.1 105.5 71C105.5 75.4 106.4 79.5 108.1 83C109.8 86.6 112.2 89.7 115.1 92.2C118.1 94.7 121.5 96.7 125.5 98.1C129.5 99.5 133.7 100.2 138.1 100.2C144.8 100.2 150.3 99.5 154.9 98.1C159.4 96.7 163.2 95.1 166.3 93.2C167.6 92.4 168.3 91.6 168.6 90.9C168.9 90.2 168.5 88.9 167.4 86.9L162.8000000000001 77.7C161.5 75.3 159.7000000000001 74.6 157.3000000000001 75.6C154.9 76.7 151.9 77.7 148.4 78.8S141.7000000000001 80.5 138.7000000000001 80.5C135.9 80.5 133.4 79.9 131.2000000000001 78.6C128.9 77.3 127.8000000000001 75.1 127.8000000000001 71.8C127.8000000000001 70.1 128.3000000000001 68.6 129.4 67.4C130.5 66.1 131.7000000000001 65.1 133.2000000000001 64.2C134.7000000000001 63.4 136.3000000000001 62.6 138.0000000000001 62.1C139.7000000000001 61.5 141.1000000000001 61 142.3000000000001 60.6C145.6000000000001 59.4 149.1000000000001 58.2 152.8000000000001 56.8S159.9000000000001 53.6 162.9000000000001 51.3C166.0000000000001 49 168.5000000000001 46.2 170.6000000000001 42.8C172.3000000000001 39.2 173.3000000000001 35 173.3000000000001 30" />
    <glyph glyph-name="play"
      unicode="&#xE00F;"
      horiz-adv-x="100" d=" M5 90.2C5 95.6 9.5 100 15 100C16.7 100 17.8 99.6 19.7 98.8L89.7 58.9C93 57 94.5 54 95 50.5V49.5C94.4 46 92.9 43 89.7 41.1L19.7 1.2C17.8 0.5 16.7 0 15 0C9.5 0 5 4.4 5 9.8V90.2z" />
    <glyph glyph-name="search"
      unicode="&#xE010;"
      horiz-adv-x="100" d=" M97.8 15.4L73.8 39.3C77.4 45.2 79.5 52.2 79.5 59.6C79.5 81.3 60.8 100 39.2 100C17.5 100 0 82.5 0 60.8C0 39.2 18.7 20.4 40.4 20.4C47.6 20.4 54.3 22.3 60.1 25.7L84.1 1.7C86.5 -0.7 90.3 -0.7 92.6 1.7L98.6 7.7C101 10.1 100.1 13 97.8 15.4zM12 60.8C12 75.8 24.2 88 39.2 88S67.5 74.7 67.5 59.7S55.4 32.6 40.4 32.6S12 45.9 12 60.8z" />
    <glyph glyph-name="social-fb"
      unicode="&#xE011;"
      horiz-adv-x="94.4" d=" M79.9 100H14.5C6.5 100 0 93.6 0 85.7V14.3C0 6.4 6.5 0 14.5 0H79.9C87.9 0 94.4 6.4 94.4 14.3V85.7C94.4 93.6 87.9 100 79.9 100zM81 70.9H69.3C68 70.9 66.4 68.8 66.4 66.3V58.7H81V43.7H66.4V0H51.9V43.7H40.3V58.7H51.9V66.1C51.9 77 59.7 85.7 69.3 85.7H81V70.9z" />
    <glyph glyph-name="social-insta"
      unicode="&#xE012;"
      horiz-adv-x="100" d=" M73.1 51.3C73.1 38.5 62.7 28.2 50 28.2S26.9 38.5 26.9 51.3C26.9 54.2 27.4 56.9 28.4 59.5H0V25C0 11.2 11.2 0 25 0H75C88.8 0 100 11.2 100 25V59.5H71.6C72.6 56.9 73.1 54.2 73.1 51.3zM63.9 51.3C63.9 59 57.7 65.2 50 65.2S36.1 59 36.1 51.3S42.3 37.4 50 37.4S63.9 43.6 63.9 51.3zM75 100H26.3V73.9H20.8V99.6C18.9 99.3 17.1 98.8 15.3 98V73.9H9.9V94.9C3.9 90.3 0 83.1 0 75V67.7H33.7C37.9 71.9 43.7 74.4 50 74.4C56.4 74.4 62.1 71.8 66.3 67.7H100V75C100 88.8 88.8 100 75 100zM86.2 76.4C86.2 74.8 84.9 73.6 83.4 73.6H75C73.4 73.6 72.2 74.9 72.2 76.4V84.8C72.2 86.4 73.5 87.6 75 87.6H83.4C85 87.6 86.2 86.3 86.2 84.8V76.4z" />
    <glyph glyph-name="social-vk"
      unicode="&#xE013;"
      horiz-adv-x="164.6" d=" M99.2 52.5C101.6 51.2 103.3 52.5 105.9 56C108.5 59.5 114.4 68.4 118.3 76.6C122.2 84.8 123.7 91.3 124.8 93.1C125.9 94.8 127.5 96.2 130.7 96.2H159.3C162 96.2 164.3 94.9 164.5 92.4C164.8 89.9 163.1 86.3 160.9 81.8S150.4 65 146.9 60.5C143.3 56 137.5 48 137.5 45.2C137.5 42.4 137.8 40.1 142.3 35.7S154 23.7 157.4 19.4C160.8 15 165.2 8.9 164.3 5.5L163.3 2.2S161.1 0.4 158.3 0.4H132.4C128.5 0.4 124.3 2.2 121.1 5.6C117.9 9.1 112.6 15.9 109.7 18.9C106.8 21.8 104.6 23.7 102.5 23.4C100.4 23.1 97.3 21.1 96.6 15.8C95.9 10.6 96.3 4.7 94.5 2.2S83.2 0 77.2 0C71.1 0 59 3.1 48.4 11.1C37.8 19.1 30.1 30.5 22.7 42.3C15.3 54.1 7.6 71.3 4.3 78.3C1 85.3 -0.8 89.5 -0.1 92.6C0.8 95.6 4 96.1 8 96.1H29.9S34.4 93.6 35.3 91.1C36.1 88.6 42.7 73.6 46.7 66.3C50.7 59 55.5 53.8 57.8 52.6C60.1 51.4 62.3 53.3 63 55.8C63.7 58.3 64 69.6 64 75.6S63.7 86.5 61.7 88.7C59.6 91 57.8 92 56.3 92.1C54.8 92.2 53.7 92.4 53.7 92.4S55.1 98.1 61.5 99.3C68 100.4 83.1 99.9 86.9 99.9C90.6 99.9 97 97.7 97 90.2C97 82.8 96.6 58.6 97 56.2C97.5 53.9 96.8 53.7 99.2 52.5z" />
    <glyph glyph-name="social-youtube"
      unicode="&#xE014;"
      horiz-adv-x="130" d=" M89.1 47.5L53.9 26.3C53 25.8 51.7 25.7 50.8 26.3C49.9 26.8 49.1 27.7 49.1 28.8V71.2C49.1 72.3 49.8 73.2 50.8 73.7C51.7 74.2 52.9 74.2 53.8 73.7L89 52.5C89.9 52 90.4 51.1 90.4 50C90.4 49 90 48.1 89.1 47.5zM127.6 80.9C126.6 90.3 119.9 97.4 110.5 98C69.8 100.7 60.2 100.7 19.5 98C10.1 97.4 3.4 90.2 2.4 80.9C-0.8 52.4 -0.8 47.6 2.4 19.1C3.4 9.7 10.1 2.6 19.5 2C60.2 -0.7 69.8 -0.7 110.5 2C119.9 2.6 126.6 9.8 127.6 19.1C130.8 47.6 130.8 52.4 127.6 80.9z" />
  </font>
</defs>
</svg>
