<?xml version="1.0"?>
<svg xmlns="http://www.w3.org/2000/svg" height="512px" viewBox="0 -51 455.87973 455" width="512px"><path d="m451.941406 272.441406v-272h-448v272zm-202.808594-215.496094c4.136719-1.554687 8.75.539063 10.304688 4.679688l40.503906 108.03125 40.503906-108c1.546876-4.140625 6.15625-6.242188 10.292969-4.695312 4.140625 1.546874 6.242188 6.15625 4.699219 10.296874l-48 128c-1.167969 3.128907-4.15625 5.203126-7.496094 5.203126-3.34375 0-6.332031-2.074219-7.496094-5.203126l-48-128c-.75-1.992187-.675781-4.195312.203126-6.128906.878906-1.9375 2.492187-3.441406 4.484374-4.183594zm-141.191406-.503906h96c4.417969 0 8 3.582032 8 8 0 4.417969-3.582031 8-8 8h-40v120c0 4.417969-3.582031 8-8 8-4.417968 0-8-3.582031-8-8v-120h-40c-4.417968 0-8-3.582031-8-8 0-4.417968 3.582032-8 8-8zm0 0" fill="#FFFFFF"/><path d="m52.660156 288.441406h22.640625l-61.601562 61.679688c-3.152344 3.09375-8.203125 3.09375-11.359375 0-3.121094-3.144532-3.121094-8.21875 0-11.359375zm0 0" fill="#FFFFFF"/><path d="m149.539062 350.121094c-3.152343 3.09375-8.203124 3.09375-11.359374 0l-61.601563-61.679688h22.640625l50.320312 50.320313c3.121094 3.140625 3.121094 8.214843 0 11.359375zm0 0" fill="#FFFFFF"/><path d="m356.660156 288.441406h22.640625l-61.601562 61.679688c-3.152344 3.09375-8.203125 3.09375-11.359375 0-3.121094-3.144532-3.121094-8.21875 0-11.359375zm0 0" fill="#FFFFFF"/><path d="m453.539062 350.121094c-3.152343 3.09375-8.203124 3.09375-11.359374 0l-61.601563-61.679688h22.640625l50.320312 50.320313c3.121094 3.140625 3.121094 8.214843 0 11.359375zm0 0" fill="#FFFFFF"/></svg>
